<?xml version="1.0" encoding="UTF-8" standalone="no"?>
<svg viewBox="0 0 383.50134 421.40234" xmlns="http://www.w3.org/2000/svg">
<defs>
<radialGradient cx="71.71971" cy="214.55608" gradientTransform="matrix(1.35649,1.59523,-1.58415,1.34707,575.57564,306.08192)" gradientUnits="userSpaceOnUse" id="radialGradient4633" r="97.16093">
<stop offset="0" stop-color="#fff"/>
<stop offset=".18" stop-color="#fbfbfb"/>
<stop offset=".38101" stop-color="#cbcbcb"/>
<stop offset=".5" stop-color="#a7a7a7"/>
<stop offset=".57098" stop-color="#aaa"/>
<stop offset="1" stop-color="#fff"/>
</radialGradient>
<radialGradient cx="121.23956" cy="276.66583" gradientTransform="matrix(-1.11227,2.30253,-2.56742,-1.2402,1164.8234,575.52534)" gradientUnits="userSpaceOnUse" id="radialGradient4635" r="167.97633">
<stop offset="0" stop-color="#fff"/>
<stop offset=".18" stop-color="#fbfbfb"/>
<stop offset=".45049" stop-color="#cbcbcb"/>
<stop offset=".54451" stop-color="#a7a7a7"/>
<stop offset=".66102" stop-color="#aaa"/>
<stop offset="1" stop-color="#fff"/>
</radialGradient>
</defs>
<g transform="translate(-205.75093,-391.35588)">
<path d="m348.53697,677.75297c.98544,25.09839-17.3291,41.76332-47.32574,46.18991-12.65177,1.86702-40.30289,11.00745-44.50432-12.40075-3.96964-22.11682 11.05741-24.26177 28.37973-27.3976 34.50922-6.24716 24.36505-26.10244 37.59517-26.94669 7.74285-.49408 23.02039.23701 25.85516,20.55513z" stroke="#000" stroke-linecap="square" stroke-width="9"/>
<path d="m24.0485,805.62463c0,21.51622-18.73437,38.95857-41.84438,38.95857s-41.84438-17.44235-41.84438-38.95857 18.73437-38.95856 41.84438-38.95856 41.84438,17.44234 41.84438,38.95856z" fill="#fff" stroke="#000" stroke-linecap="square" stroke-width="17.38401" transform="matrix(.47623,.02867,-.03354,.5608,482.59253,329.81367)"/>
<path d="m348.26878,776.77824c.41655,19.13716-10.68701,18.47196-50.60978,22.91498-27.95989,3.11167-35.59423,2.3596-37.99717-15.47008-2.75413-20.43549 7.0537-27.37438 22.93348-28.80928 41.39845-3.74077 64.30392-11.07957 65.67347,21.36438z" stroke="#000" stroke-linecap="square" stroke-width="9"/>
<path d="m459.66021,735.34214c-5.33643,46.31967-23.4509,65.72496-77.43341,66.23589-61.0822.57812-105.90509-10.27743-107.67586-50.3959-2.19544-49.73992 29.87282-73.58581 44.10067-89.68026 24.0273-27.17952 70.60556-52.34288 93.23098-44.56599 17.24714,5.92825 55.89131,47.98034 47.77762,118.40626z" fill="url(#radialGradient4633)" stroke="#000" stroke-linecap="square" stroke-width="9"/>
<path d="m458.01373,762.62705c.37639,25.11503-17.69127,45.02846-48.43207,45.02082-16.8695-.004-25.2347,1.57469-32.17504-.33022-6.03097-1.6553-11.69808-6.22905-12.01531-13.15342-1.18917-25.9563 11.57459-30.17874 27.50788-30.89224 35.03161-1.56873 26.51893-21.30422 39.7656-21.82521 7.75255-.3049 23.00784.79897 25.34894,21.18027z" stroke="#000" stroke-linecap="square" stroke-width="9"/>
<path d="m122.85714,105.21932c0,59.17337-53.72583,107.14286-120,107.14286s-120-47.96949-120-107.14286 53.72583-107.14286 120-107.14286 120,47.96949 120,107.14286z" stroke="#000" stroke-linecap="square" stroke-width="20.99842" transform="matrix(.41226,-.11472,.11545,.41347,272.52115,399.08114)"/>
<path d="m538.02147,590.05516c-10.94919,81.19689-116.97215,117.82026-210.42253,96.47162-89.50089-20.4464-132.14122-79.57121-110.63757-158.61654 22.01698-80.9324 96.08366-136.74644 187.04679-124.39972s144.96249,105.34774 134.01331,186.54464z" fill="url(#radialGradient4635)" stroke="#000" stroke-linecap="square" stroke-width="9"/>
<path d="m-868.5714,158.07646c0,50.49461-51.16746,91.42858-114.28572,91.42858s-114.28568-40.93397-114.28568-91.42858 51.1674-91.42857 114.28568-91.42857 114.28572,40.93396 114.28572,91.42857z" stroke="#000" stroke-linecap="square" stroke-width="19.63178" transform="matrix(.19558,.41282,-.4276,.17203,799.53258,862.60081)"/>
<path d="m338.35009,624.32057c-1.07392,7.96399-11.43764,13.13913-23.13329,11.55164s-20.31614-9.33941-19.24222-17.3034 11.89209-16.50922 23.5877-14.92174 19.86174,12.7095 18.78781,20.6735z" stroke="#000" stroke-linecap="square" stroke-width="9"/>
<path d="m280.01277,623.31013c0,0-12.40235,24.09124 11.89474,28.16086 11.50238,1.9365 24.2835-15.22463 24.2835-15.22463s1.49388,16.02882 15.59571,24.95906c12.58204,7.96782 21.79504,6.68595 31.132,3.65163 12.80079-4.15998 14.98246-15.91308 14.98246-15.91308" fill="none" stroke="#000" stroke-linecap="square" stroke-width="9"/>
<g transform="matrix(.4063,.19054,-.18706,.42577,397.04306,339.16664)">
<path d="m-141.12351,505.7901c-51.71904,63.67885-41.90873,136.028 2.89476,160.38068 32.89708,17.88102 68.31207,25.49713 100.14541-2.56152 46.05077-40.59022 19.28646-66.31274 51.61705-111.81385 28.41119-39.98505 20.02647-86.69523-7.53665-104.07114-32.95708-20.77629-95.40155-5.61303-147.12057,58.06583z" stroke="#000" stroke-linecap="square" stroke-width="19.70397"/>
<g transform="translate(0,-12.37921)">
<path d="m10.378,529.19152c1.55793,29.34126-20.85182,53.15445-50.02176,53.15445s-54.1085-23.81319-55.66643-53.15445 20.85182-53.15446 50.02176-53.15446 54.1085,23.8132 55.66643,53.15446z" fill="#fff" stroke="#000" stroke-linecap="square" stroke-width="19.70397"/>
<path d="m-71.10061,544.24206c-.02051-.0202 15.06174-42.32726 40.34667-36.4417 18.69506,4.35165 22.01871,34.61962 22.01871,34.61962" fill="none" stroke="#000" stroke-linecap="square" stroke-width="19.70397"/>
</g>
</g>
<g transform="matrix(.65946,-.06833,.06235,.70212,706.62782,569.40752)">
<path d="m-394.81795-68.08432c42.22752,29.07577 58.90604,77.01798 40.31917,118.23527-20.96657,46.49442-85.32676,49.52114-117.23677,27.46421-21.74448-15.03029-16.61079-53.07362-31.08319-73.95429-16.68152-24.06797-13.70488-47.4483 1.92801-73.70409 18.79976-31.57461 63.84531-27.11687 106.07278,1.9589z" stroke="#000" stroke-linecap="square" stroke-width="13.166"/>
<g transform="matrix(.99025,.13929,-.13929,.99025,-733.65065,-477.41182)">
<path d="m383.03846,397.09616c0,20.89115-19.08347,37.84628-42.59704,37.84628s-42.59704-16.95513-42.59704-37.84628 19.08347-37.8463 42.59704-37.8463 42.59704,16.95514 42.59704,37.8463z" fill="#fff" stroke="#000" stroke-linecap="square" stroke-width="13.166"/>
<path d="m309.84402,403.5969c0,0 5.83069-27.50221 22.61547-26.59396 20.79983,1.1255 24.61094,25.412 24.61094,25.412" fill="none" stroke="#000" stroke-linecap="square" stroke-width="13.166"/>
</g>
</g>
<path d="m445.76966,706.17588c-10.21213,22.93325-35.47102,32.81604-64.24193,21.95317-15.7885-5.96117-24.1723-7.43737-30.00021-11.67126-5.06429-3.67913-8.76412-9.96145-6.63176-16.55474 7.99324-24.7152 21.42158-24.16008 36.58555-19.20129 9.84942,3.22086 21.33833,9.9462 26.3689,8.74911 7.14912-1.70122 10.32436-10.61941 18.50896-15.13496 4.73155-2.61045 10.28637-5.24586 14.55232-4.35747 6.06087,1.2622 10.40962,8.80976 14.57383,12.66946-1.06723,4.53368 4.44248,7.34571 2.77187,11.03555-7.45172.90281-10.94907,9.05753-12.48753,12.51243z" stroke="#000" stroke-linecap="square" stroke-width="9"/>
</g>
</svg>
