<?xml version="1.0" encoding="UTF-8" standalone="no"?>
<svg width="1052.4" xmlns="http://www.w3.org/2000/svg" xmlns:xlink="http://www.w3.org/1999/xlink" height="744.09">
 <defs>
  <linearGradient id="linearGradient2165">
   <stop id="stop2167" stop-color="#8aa1c1" offset="0"/>
   <stop id="stop2173" stop-color="#5b97b6" offset=".78261"/>
   <stop id="stop2169" stop-color="#0a244e" offset="1"/>
  </linearGradient>
  <linearGradient id="linearGradient2423" y2="1" x2=".29222" y1="-.13889" x1=".50702">
   <stop id="stop2289" offset="0"/>
   <stop id="stop2291" stop-opacity="0" offset="1"/>
  </linearGradient>
  <linearGradient id="linearGradient2260">
   <stop id="stop2262" offset="0"/>
   <stop id="stop2268" stop-opacity=".827" offset=".26087"/>
   <stop id="stop2264" stop-opacity="0" offset="1"/>
  </linearGradient>
  <radialGradient id="radialGradient2352" xlink:href="#linearGradient2260" gradientUnits="userSpaceOnUse" cy="1178.5" cx="125.73" gradientTransform="matrix(4.7622 0 0 .75420 188.28 -304.18)" r="49.884"/>
  <radialGradient id="radialGradient2366" xlink:href="#linearGradient2165" gradientUnits="userSpaceOnUse" cy="370.41" cx="538.37" gradientTransform="matrix(1.3732 0 0 2.3805 -203.16 -360.08)" r="16.066"/>
  <radialGradient id="radialGradient2368" xlink:href="#linearGradient2165" gradientUnits="userSpaceOnUse" cy="308.37" cx="342.17" gradientTransform="matrix(1.3127 0 0 2.736 -274.7 -363.87)" r="10.219"/>
  <radialGradient id="radialGradient2362" xlink:href="#linearGradient2260" gradientUnits="userSpaceOnUse" cy="1178.5" cx="125.73" gradientTransform="matrix(4.7622 0 0 .75420 -5.2102 -321.38)" r="49.884"/>
  <radialGradient id="radialGradient2356" xlink:href="#linearGradient2260" gradientUnits="userSpaceOnUse" cy="1178.5" cx="125.73" gradientTransform="matrix(4.7622 0 0 .75420 -160 -349.33)" r="49.884"/>
  <radialGradient id="radialGradient2358" xlink:href="#linearGradient2260" gradientUnits="userSpaceOnUse" cy="1178.5" cx="125.73" gradientTransform="matrix(4.7622 0 0 .75420 -312.64 -366.53)" r="49.884"/>
 </defs>
 <g fill-rule="evenodd">
  <path id="path2374" d="m926.55 245s13.364-4.4546 19.091-1.2727c5.7273 3.1818 13.364 5.0909 14 11.454 0.63635 6.3636 7.6364 0.63637 7.6364 0.63637" stroke="#000" stroke-width="8.75" fill="none"/>
  <g stroke-linejoin="round" stroke-linecap="round">
   <rect id="rect2372" transform="matrix(.99742 .071794 .071048 .99747 0 0)" rx="9.1201" ry="25.844" height="110.7" width="29.242" y="185.77" x="933.77" stroke-width="1.248"/>
   <g stroke-width=".5" stroke-opacity=".405">
    <path id="path2274" opacity=".372" fill="url(#radialGradient2352)" d="m1024.6 584.67a237.56 37.623 0 1 1 -475.12 0 237.56 37.623 0 1 1 475.12 0z"/>
    <path id="path2282" opacity=".372" fill="url(#radialGradient2362)" d="m831.09 567.47a237.56 37.623 0 1 1 -475.12 0 237.56 37.623 0 1 1 475.12 0z"/>
    <path id="path2270" opacity=".372" fill="url(#radialGradient2356)" d="m676.3 539.52a237.56 37.623 0 1 1 -475.12 0 237.56 37.623 0 1 1 475.12 0z"/>
    <path id="path2258" opacity=".372" fill="url(#radialGradient2358)" d="m523.66 522.32a237.56 37.623 0 1 1 -475.12 0 237.56 37.623 0 1 1 475.12 0z"/>
   </g>
  </g>
  <path id="path2284" fill="url(#linearGradient2423)" d="m168.31 528.83l66.647-27.949 582.62 51.597s-137.59 38.698-202.09 36.548c-64.497-2.1499-221.44-32.248-281.64-40.848-60.197-8.5996-249.39-10.75-227.89-15.049 21.499-4.2997 62.347-4.2997 62.347-4.2997z"/>
  <path id="path2278" opacity=".372" stroke-linejoin="round" d="m831.09 567.47a237.56 37.623 0 1 1 -475.12 0 237.56 37.623 0 1 1 475.12 0z" stroke-opacity=".405" stroke-linecap="round" stroke-width=".5" fill="url(#radialGradient2362)"/>
  <g stroke-width="3.79" stroke="#000">
   <path id="path2183" d="m148.41 495.92c0.37779 6.4222 1.8889 14.733 0.37779 17.755-1.5111 3.0222 9.8221 0 9.8221 0s3.4 8.311 6.8 10.956c3.4 2.6444 5.6666 3.7778 10.956 4.1555 5.2888 0.37781 16.244 0 20.778-0.37775 4.5333-0.37781 7.5555 0 9.8221-3.7778 2.2667-3.7778 5.6666-10.578 7.9333-17.378 2.2667-6.7999 0.37779-62.333 0.37779-62.333s-32.866-28.711-43.822-28.333c-10.956 0.37781-26.822 22.666-26.822 27.2 0 4.5333 3.7777 54.022 3.7777 54.022v-1.8888z"/>
   <path id="path2157" d="m537.56 583.36l43.98-4.2561s7.0936-1.4188 12.768-11.35c5.6749-9.931 5.6749-36.886 5.6749-36.886l-5.6749-85.123s-19.862-19.862-58.167-14.187c-38.305 5.6748-56.748 28.374-55.33 56.748 1.4187 28.374 2.8374 53.911 2.8374 53.911s2.8374 19.862-1.4187 26.956c-4.2562 7.0935 34.049 0 34.049 0s4.2562 5.6748 12.768 9.931l8.5123 4.2561z"/>
  </g>
  <path id="path2181" stroke-linejoin="round" d="m547.04 582.7c19.919 0.36346 32.885-17.303 33.503-51.181 0.31293-17.15-8.7178-39.995-15.19-51.257 5.0965 10.776 8.8711 28.12 8.5965 43.168-0.61816 33.878-15.809 58.87-35.728 58.507-9.9017-0.18066-20.878-8.6246-27.2-19.739 6.3756 13.578 24.903 20.298 36.019 20.501z" stroke-opacity=".384" fill-opacity=".195" stroke-linecap="round" stroke-width="1.032" fill="#fff"/>
  <g stroke="#000">
   <g stroke-width="3.79">
    <path id="path2149" d="m746.11 415.95l-25.537-106.4-28.374-129.1 21.281-24.118 174.5 18.443 15.606 9.931s29.793 73.773 39.724 107.82c9.931 34.049 22.699 75.192 24.118 90.798 1.4188 15.606 5.6749 41.143 4.2562 49.655-1.4187 8.5123-89.379 21.281-89.379 21.281l-119.17-15.606-17.024-22.699z"/>
    <path id="path2145" fill="#5f0000" d="m728.46 574.01s218.48-12.121 226.93-18.032c8.4442-5.9113 13.868-18.903 13.868-18.903s-144.14 11.859-178.34 16.927c-34.2 5.0677-62.455 20.009-62.455 20.009z"/>
   </g>
   <path id="path1358" stroke-width="1.895" fill="#fff" d="m52.361 474.38s3.4168-162.3 3.4168-182.8c0-20.501 3.4168-32.46 5.1252-44.419s13.667-22.209 13.667-22.209l551.82-97.38s27.335-6.8337 41.002-5.1253 123.01 10.25 123.01 10.25 47.836 8.5421 64.92 13.667c17.084 5.1253 27.335 8.5421 37.585 20.501s13.667 18.793 13.667 18.793-37.585-6.8337-80.296-11.959c-42.71-5.1253-68.337-6.8337-87.129-6.8337-18.793 0-25.626 6.8337-32.46 10.25-6.8337 3.4168-6.8337 18.793-6.8337 18.793s44.419 184.51 46.127 193.05c1.7084 8.5421 10.25 27.335 18.792 30.752 8.5421 3.4168 20.501 8.5421 29.043 11.959 8.5421 3.4168 70.045 5.1252 93.963 5.1252s52.961 1.7084 64.92 0 20.501-8.5421 20.501-8.5421v47.836s-1.7084 63.211-5.1252 68.337c-3.4168 5.1253-198.18 18.793-210.14 22.209-11.959 3.4169-20.501 6.8337-32.46 6.8337s-141.8-20.501-141.8-20.501l-6.8337 6.8336s0-34.168-1.7084-52.961-10.25-35.877-23.918-51.252c-13.667-15.376-34.168-10.25-34.168-10.25s-10.25 1.7084-17.084 11.959c-6.8336 10.25-11.959 25.626-11.959 37.585s-3.4168 32.46-3.4168 39.294c0 6.8337-1.7084 8.5421-1.7084 8.5421l-5.1252-5.1252s-254.55-34.168-268.22-29.043c-13.667 5.1252-11.959-3.4168-11.959-3.4168v-34.168c0-13.667-8.5421-34.168-11.959-37.585-3.4168-3.4168-11.959-10.25-17.084-8.542-5.1253 1.7084-11.959 8.542-15.376 18.792-3.4168 10.25-5.1252 20.501-5.1252 30.752 0 10.25 1.7084 25.626 1.7084 25.626l-6.8337-6.8336s-27.335 3.4168-47.836-3.4168-42.71-15.376-42.71-15.376z"/>
  </g>
  <path id="path2119" fill-opacity=".514" d="m848.48 518.8l-6.8336-30.752s90.546-6.8336 97.38-3.4168c6.8337 3.4168 1.7084 30.752 1.7084 30.752l-78.587 6.8336 77.173-8.7043-3.7112-26.966c-5.2574-0.5007-89.382-2.7098-91.091 4.1238-1.7084 6.8337 3.9616 28.13 3.9616 28.13z"/>
  <g stroke="#000">
   <g stroke-width="1.895">
    <path id="path2121" fill="none" d="m880.94 517.09l25.626-30.752"/>
    <path id="path2131" d="m723.77 501.72s-29.043-3.4168-46.127-22.209c-17.084-18.793-30.752-44.419-39.294-80.296s-17.084-99.088-17.084-99.088l-553.53 27.335s-5.1253-13.667-5.1253-35.877c0-22.209 6.8337-46.127 6.8337-46.127l555.24-82.004s25.626-5.1253 41.002 5.1252 20.501 23.918 23.918 34.168c3.4168 10.25 30.752 129.84 32.46 150.34 1.7084 20.501 3.4168 29.043 3.4168 29.043l-1.7084 119.59z"/>
   </g>
   <g fill="none">
    <path id="path2133" stroke-width="3.411" d="m643.47 421.42l1.7084 136.67 80.296 10.25 1.7084-5.1252-1.7084-124.71"/>
    <path id="path2135" stroke-width="3.222" d="m265.91 507.6v-177.77l41.002-2.3754v184.7"/>
   </g>
  </g>
  <g fill="#fff">
   <g fill-opacity=".189">
    <path id="path2137" d="m585.39 518.8s1.7084-35.877-11.959-52.961-11.959-27.335-29.043-35.877c-17.084-8.5421-29.043-6.8337-29.043-6.8337s39.294-10.25 56.378 25.626c17.084 35.877 13.667 70.045 13.667 70.045z"/>
    <path id="path2139" d="m204.41 474.38s0-23.918-6.8337-34.168-15.376-23.918-15.376-23.918 17.084 13.667 20.501 25.626c3.4168 11.959 1.7084 32.46 1.7084 32.46z"/>
    <path id="path2141" d="m648.6 129.28s17.084-6.8337 32.46 5.1252 29.043 29.043 29.043 29.043-13.667 1.7084-13.667 10.25c0 8.5421 1.7084-6.8337-11.959-22.209-13.667-15.376-8.5421-11.959-17.084-15.376-8.5421-3.4168-18.793-6.8337-18.793-6.8337z"/>
    <path id="path2143" d="m768.19 424.84s5.1252 6.8336 15.376 8.542c10.25 1.7084 13.667 3.4168 13.667 3.4168s3.4169 17.084-5.1252 34.168c-8.542 17.084-10.25 105.92-13.667 78.587-3.4169-27.335-1.7084-76.879-3.4169-93.963-1.7084-17.084-6.8336-30.752-6.8336-30.752z"/>
   </g>
   <path id="path2151" fill-opacity=".789" d="m642.72 419.58l-2.1625-171.67 52.387-4.3647 1.5834 5.6311s-41.249-3.0563-45.297 4.1582c-4.0477 7.2145-4.1304 4.3782-3.7173 18.559 0.41315 14.181-2.7941 147.69-2.7941 147.69z"/>
  </g>
  <g stroke-width="1.895" stroke="#000" fill="#d6ec54">
   <path id="path2153" d="m747.53 492.57l1.4187 18.443s12.768 4.2561 24.118 4.2561 43.98-1.4187 43.98-1.4187l-2.8374-24.118h-31.212c-9.931 0-18.443 0-25.537 1.4187-7.0936 1.4187-9.931 1.4187-9.931 1.4187z"/>
   <path id="path2155" d="m957.5 484.05l-1.4187 25.537 12.768-4.2561 2.8374-24.118s0-1.4187-5.6749 1.4187c-5.6748 2.8374-8.5123 1.4187-8.5123 1.4187z"/>
  </g>
  <g stroke-linejoin="round" stroke-linecap="round">
   <g stroke-width="1.032" stroke-opacity=".384">
    <path id="path2163" fill="url(#radialGradient2366)" stroke="#fff" d="m558.2 521.7a22.061 38.244 0 1 1 -44.123 0 22.061 38.244 0 1 1 44.123 0z"/>
    <path id="path2175" fill-opacity=".405" fill="#fff" d="m536.6 460c-19.922 0-36.068 27.532-36.068 61.416 0 17.153 4.1615 32.566 10.838 43.708-5.2923-10.681-9.3827-27.954-9.3827-43.004-0.000031-33.884 14.733-59.149 34.655-59.149 9.9033 0 21.032 8.2422 27.556 19.239-6.6222-13.459-16.48-22.209-27.599-22.209z"/>
   </g>
   <g stroke-width=".5" stroke-opacity=".405">
    <path id="path2185" fill="url(#radialGradient2368)" stroke="#fff" d="m186.94 479.85a12.467 27.011 0 1 1 -24.933 0 12.467 27.011 0 1 1 24.933 0z"/>
    <path id="path2199" opacity=".372" d="m173.93 432.86c-11.782 0-21.38 20.136-21.38 44.951 0 7.4678 1.1332 14.174 2.6651 20.373-0.8564-4.8645-0.78429-17.146-0.78429-22.635 0.000015-24.815 8.4647-38.966 20.247-38.966 8.2253 0 15.529 11.283 19.093 25.652-3.0227-17.094-10.675-29.375-19.84-29.375z" fill-opacity=".627" fill="#fff"/>
   </g>
  </g>
  <path id="path2295" d="m846.15 181.56l53.747 8.5995s21.499 45.148 23.649 55.897c2.1499 10.75 17.199 51.597 17.199 51.597s-38.698-88.146-42.998-94.595c-4.2997-6.4497-51.597-21.499-51.597-21.499z" fill-opacity=".416" stroke="#000" stroke-width="1.895" fill="#fff"/>
  <g stroke-linejoin="round" stroke-linecap="round" stroke-width="1.392">
   <rect id="rect2378" transform="matrix(.99851 .054603 .093347 .99563 0 0)" fill-opacity=".827" rx="12.197" ry="26.336" height="112.8" width="39.109" y="211.65" x="709.01" fill="#fff"/>
   <rect id="rect2370" transform="matrix(.99833 .057740 0.0883 .99609 0 0)" rx="11.34" ry="25.88" height="110.85" width="36.36" y="209.71" x="711.99"/>
  </g>
  <path id="path2376" fill-opacity=".584" fill="#fff" d="m752.82 250.55s-3.1818-6.3636-9.5455-8.9091c-8.9091-1.9091-27.364-2.5454-29.909-1.9091-2.5455 0.63635 27.364-3.1818 33.727-0.63637 6.3636 2.5455 5.7273 11.454 5.7273 11.454z"/>
 </g>
</svg>
