<?xml version="1.0" encoding="UTF-8" standalone="no"?>
<svg viewBox="0 0 2321.5493 974.02759" xmlns="http://www.w3.org/2000/svg" xmlns:xlink="http://www.w3.org/1999/xlink">
<defs>
<filter id="filter5191">
<feGaussianBlur stdDeviation=".70407"/>
</filter>
<filter id="filter5195">
<feGaussianBlur stdDeviation=".55719"/>
</filter>
<filter id="filter5379">
<feGaussianBlur stdDeviation="3.19844"/>
</filter>
<filter height="1.23897" id="filter3679" width="1.19914" x="-.09957" y="-.11948">
<feGaussianBlur stdDeviation="1.16885"/>
</filter>
<filter height="1.15711" id="filter3695" width="1.26243" x="-.13121" y="-.07856">
<feGaussianBlur stdDeviation="2.688"/>
</filter>
<linearGradient id="linearGradient5171">
<stop offset="0" stop-color="#80b490"/>
<stop offset="1" stop-color="#80b490" stop-opacity="0"/>
</linearGradient>
<linearGradient id="linearGradient3807">
<stop offset="0" stop-color="#f2f2f2"/>
<stop offset="1" stop-color="#f2f2f2" stop-opacity="0"/>
</linearGradient>
<linearGradient gradientUnits="userSpaceOnUse" id="linearGradient3785" x1="831.45532" x2="992.65918" xlink:href="#linearGradient3807"/>
<linearGradient gradientUnits="userSpaceOnUse" id="linearGradient3803" x1="1014.8611" x2="1168.3311" xlink:href="#linearGradient3807"/>
<linearGradient gradientUnits="userSpaceOnUse" id="linearGradient3813" x1="-76.61693" x2="757.94635" xlink:href="#linearGradient3807"/>
<linearGradient gradientUnits="userSpaceOnUse" id="linearGradient5177" x1="-579.99609" x2="-575.12915" xlink:href="#linearGradient5171" y1="322.65833" y2="338.07385"/>
<linearGradient gradientUnits="userSpaceOnUse" id="linearGradient5393" x1="1220.0581" x2="1423.6919" xlink:href="#linearGradient5171"/>
<linearGradient gradientUnits="userSpaceOnUse" id="linearGradient5395" x1="374.35498" x2="660.80127" xlink:href="#linearGradient5171"/>
</defs>
<g transform="translate(800.33146,43.61842)">
<path d="m-1800.8265,709.85736c0,121.95636-66.323,220.82152-148.1365,220.82152s-148.1365-98.86516-148.1365-220.82152 66.323-220.82152 148.1365-220.82152 148.1365,98.86516 148.1365,220.82152z" fill="#3b3b3b" transform="matrix(1.06504,.13678,-.09514,1.0114,2605.93815,254.84859)"/>
<path d="m-1982.1088,708.7525c0,98.24127-36.1102,177.88155-80.6544,177.88155s-80.6543-79.64028-80.6543-177.88155 36.1101-177.88154 80.6543-177.88154 80.6544,79.64028 80.6544,177.88154z" fill="#2e2e2e" transform="matrix(1.5189,.18259,-.09989,.99401,3692.19811,393.22332)"/>
<path d="m-1993.1573,731.95441c0,87.86796-37.5942,159.09903-83.9689,159.09903s-83.969-71.23107-83.969-159.09903 37.5942-159.09903 83.969-159.09903 83.9689,71.23106 83.9689,159.09903z" fill="#c0c0c0" transform="matrix(1.29483,.14232,-.10926,.99401,3264.27777,289.94852)"/>
<path d="m-1800.8265,709.85736c0,121.95636-66.323,220.82152-148.1365,220.82152s-148.1365-98.86516-148.1365-220.82152 66.323-220.82152 148.1365-220.82152 148.1365,98.86516 148.1365,220.82152z" fill="#3b3b3b" transform="matrix(.7922,.10174,-.07077,.7523,2869.15437,196.63533)"/>
<path d="m-1982.1088,708.7525c0,98.24127-36.1102,177.88155-80.6544,177.88155s-80.6543-79.64028-80.6543-177.88155 36.1101-177.88154 80.6543-177.88154 80.6544,79.64028 80.6544,177.88154z" fill="#2e2e2e" transform="matrix(1.1298,.13582,-.0743,.73937,3677.14069,299.56179)"/>
<path d="m-1993.1573,731.95441c0,87.86796-37.5942,159.09903-83.9689,159.09903s-83.969-71.23107-83.969-159.09903 37.5942-159.09903 83.969-159.09903 83.9689,71.23106 83.9689,159.09903z" fill="#c0c0c0" transform="matrix(.96313,.10586,-.08127,.73937,3358.84324,222.74351)"/>
<g transform="matrix(.99401,.10926,-.10926,.99401,1238.92697,-24.13905)">
<path d="m-1800.8265,709.85736c0,121.95636-66.323,220.82152-148.1365,220.82152s-148.1365-98.86516-148.1365-220.82152 66.323-220.82152 148.1365-220.82152 148.1365,98.86516 148.1365,220.82152z" fill="#3b3b3b" transform="matrix(1.07361,.0196,.01593,1.01574,455.95082,162.66196)"/>
<path d="m-1982.1088,708.7525c0,98.24127-36.1102,177.88155-80.6544,177.88155s-80.6543-79.64028-80.6543-177.88155 36.1101-177.88154 80.6543-177.88154 80.6544,79.64028 80.6544,177.88154z" fill="#2e2e2e" transform="matrix(1.52976,.01555,.0093,.99898,1550.8263,181.52879)"/>
</g>
<path d="m-748.22479,380.76029c121.4057-57.38622 177.4616-59.12969 315.50764-87.95851 171.90655-24.92473 250.28642-12.30538 304.14572-34.72531 53.19644-7.47705 112.51449-99.07605 170.21026-146.91368 51.28569-42.5228 82.7669-87.18103 156.35407-124.49537 113.50948-23.02696 282.31296-36.82761 624.86424-27.16238 92.58932,4.72432 214.73546,7.82128 327.14286,55.71428 77.4281,52.13681 125.9471,117.90098 200,177.14287 56.573,30.54392 138.8844,28.6051 162.1429,87.85713 19.5197,78.63229 2.1428,89.28572 2.1428,89.28572s25.6137,12.49621 25.7143,24.28571c.125,14.64766-31.4286,30.71429-31.4286,30.71429s-15.5089,52.89278-45.7143,82.14285c-24.2255,20.56122-62.2981,37.0138-80.7143,50.7143-2.3322,17.53839 72.8252-174.68424-41.7627-154.7251-50.5236,8.80029-83.2734,84.67118-115.1058,148.39262-30.8426,61.74024-56.8161,114.62626-63.1315,89.18961-193.87701,54.3102-375.30946,107.25064-546.42851,152.14287-22.53501-3.01229 96.961-217.4391-27.93107-260.09445-9.23637-2.89136-88.56289-26.47084-153.52927,44.55316-77.74807,81.55403-121.60653,267.13285-167.73037,275.0557-292.33359-16.58621-384.1813-39.60531-533.87933-57.14104-134.80203-18.45925-193.42565-24.29095-305.14425-44.51624-44.87993-31.64637-67.77215-45.42443-120.35714-105.35714-10.64813-19.60212-5.38649-9.8854-13.92857-21.07142-17.57213-1.63426-66.02006,5.39779-74.56236-32.17259 20.04513-19.75596 41.28499-39.29624 41.28499-39.29624-4.79811-56.97946-10.45884-113.87266-8.16171-171.56164z" fill="#506a36"/>
<path d="m-654.07915,416.89395c85.09589,3.36667 168.60747,9.90247 180.32854,15.80289 94.89265,4.20787 204.97631,17.36748 319.51707,26.84982 26.24427-6.10215 247.09227,17.84237 291.01706,24.3567 9.79052,1.45199 11.43748,30.1214 12.45253,56.46497 .85444,22.17549 4.45648,40.33255 4.0969,60.20044-.39058,21.58118 5.18027,33.44298-8.94172,36.30958-148.476-17.3886-540.6755-47.9227-812.60458-90.81905-19.6344.01-20.9449-101.40984-20.9449-101.40984s2.0462-30.87995 35.0791-27.75551z" stroke="#000" stroke-width="6"/>
<path d="m-654.47626,417.55234c85.09586,3.36667 168.60744,9.90247 180.32851,15.80289 94.89265,4.20787 204.97631,17.36748 319.51707,26.84982 26.24427-6.10215 247.09227,17.84237 291.01706,24.3567 9.79052,1.45199 11.43748,30.1214 12.45253,56.46497 .85444,22.17549 4.45648,40.33255 4.0969,60.20044-.39058,21.58118 5.18027,33.44295-8.94172,36.30957-148.476-17.38862-540.6755-47.92269-812.60459-90.81904-19.63438.01-20.94488-101.40984-20.94488-101.40984s2.0462-30.87995 35.07912-27.75551z" fill="none" stroke="#e4e4e4" stroke-width="6"/>
<path d="m-650.71429,438.07647c-20.95238,19.04762-7.28729,94.6538 3.57143,93.57143 37.81382,10.34663 80.36649,10.91821 110.74245,14.51442 21.43495-16.50362 3.77436-104.06882-2.8853-104.51442-35.62763-12.80723-105.60045-12.73502-111.42858-3.57143z" fill="#fcffab" stroke="#000"/>
<path d="m-21.46574,494.75798c-8.83883,14.89975-5.55584,80.55966.50508,93.4391-2.27284,13.97378 98.99495,20.62396 153.29065,19.95052 2.69374-7.66032 3.11464-64.56558 2.77793-101.26779-23.90695-18.18275-145.54615-28.03174-156.57365-12.12183z" fill="#fcffab" stroke="#000"/>
<path d="m248.49753,642.74533c-4.8824-26.26397-8.24958-52.52794-32.82996-95.45942-7.13853-2.17343-4.73086-7.09591-49.62804-4.67096-4.88442.26381-7.8342-4.46852-9.52902-4.73609 2.18867,34.51355 4.31419,64.54454 6.62913,104.86647 3.87225,2.69374 7.03255,7.70471 11.61675,8.08122 24.62604,2.0226 48.90822-2.60956 73.74114-8.08122" fill="#d3d3d3" stroke="#000"/>
<g transform="matrix(1.03327,0,0,1.03327,9.43967,-16.93505)">
<path d="m-521.96428,470.39789 10-10 476.78571,43.92857-1.07143,12.14286-423.92856-35.71429-6.78572-3.92857-55-6.42857z" fill="#f2f2f2" opacity=".51316" stroke="#000" transform="matrix(.9678,0,0,.9678,-9.13576,16.38982)"/>
<path d="m-521.96429,529.68361 10-10 476.78572,43.92857-1.07143,12.14286-423.92857-35.71429-6.78572-3.92857-55-6.42857z" fill="#f2f2f2" opacity=".51316" stroke="#000" transform="matrix(.9678,0,0,.9678,-9.13576,16.38982)"/>
<path d="m-510,488.39029 52.49999,7.5 9.28573,3.92857 309.99999,28.57143 5.53571-1.25 88.03572,5" fill="none" stroke="#877e7e" stroke-width="3"/>
<path d="m-508.45022,498.64187 52.49999,7.5 9.28573,3.92857 310,28.57143 5.53571-1.25 88.03571,5" fill="none" stroke="#877e7e" stroke-width="3"/>
<path d="m-507.6926,508.23832 52.49999,7.5 9.28573,3.92857 309.99999,28.57143 5.53571-1.25 88.03572,5" fill="none" stroke="#877e7e" stroke-width="3"/>
<path d="m-509.96545,480.20658 52.49999,7.5 9.28573,3.92857 309.99999,28.57143 5.53571-1.25 88.03573,5" fill="none" stroke="#877e7e" stroke-width="3"/>
</g>
<path d="m-746.88154,459.0554c0,0 31.48835,2.20971 46.95631,1.10485 4.75288,39.80535 7.45776,51.65195 9.11504,93.63641-22.6495.55243-49.16601-1.10485-49.16601-1.10485l-6.90534-93.63641z" fill="#d3d3d3" stroke="#000"/>
<path d="m264.88883,847.68792c0,0 13.73496,37.16401 125.74252-222.66054 68.06734-101.98312 126.14552-106.44192 161.38416-104.70655 51.75325-5.45737 84.88992,32.6117 95.48188,91.39405 9.71008,53.88815-33.7508,169.40556-33.7508,169.40556" fill="none" stroke="#c6c6c6" stroke-width="5"/>
<path d="m-739.64268,552.7298c-15.4948,15.10417-25.91146,25.91146-41.40625,41.01562 27.60416,43.09897 66.53645,23.3073 100.39062,33.20313 309.3752,47.33208 754.14278,113.96208 893.71862,101.97827 8.63528-.74141-6.19461,1.36642 0,0 17.70834-4.42708 72.91668-15.49478 42.57813-75-13.18876,7.49692-81.07481,13.27953-100.01494.86651-88.95649-6.46331-190.67155-17.55628-296.80822-30.35816-5.57751,6.86125-25.79837,15.02515-25.79837,15.02515s-135.20927-14.21865-273.3541-31.78812c-31.2205-21.86417-86.0268-22.91155-141.30366-30.20544-106.77826-18.76393-177.58599-5.51088-142.20715-22.68303-5.60121-.87752-10.87678-1.59328-15.79468-2.05393z" fill="#f2f2f2" fill-opacity=".75238" stroke="#000"/>
<path d="m-772.07032,583.41687c259.69903,24.75892 375.76236,51.22453 858.04396,95.16889 32.2752,2.94084 58.32418,13.18567 81.99746,14.97701 37.31645.42246 77.58-16.96041 101.16953-15.41934 4.04281.26411 11.35333,17.24241-.59303,20.9553-32.66432,4.86605-68.3182,20.46604-103.38577,14.60547-109.35108-18.27499-67.25742-22.69744-198.61062-29.74335-193.92469-15.32771-285.70794-22.81442-621.84116-72.36089-48.81565-9.12457-75.0534-.47848-115.02255-4.55028 1.36719-1.43229-21.87501-11.26302-1.75782-23.63281z" fill="#6e6565" fill-opacity=".8" stroke="#000"/>
<path d="m1167.2605,645.8122c0,0 3.387,12.35158 85.8458-153.32502 35.7336-71.79623 69.5968-93.70128 92.6664-94.68832 34.0277-1.4559 61.379,24.70701 60.4598,63.30113-1.2235,51.37767-21.5998,97.93126-21.5998,97.93126" fill="none" stroke="#c6c6c6" stroke-width="3.28176"/>
<path d="m754.61552,276.75443 45.29903-250.80194 132.58252-1.10485 76.23493,233.12427-254.11648,18.78252z" fill="#444f35" stroke="#b9b9b9" stroke-width="8"/>
<path d="m1030.8291,255.20977c-19.9507-89.74067-53.07593-183.81705-76.23491-227.6 48.61351,1.10485 83.96881-7.18155 134.79211,13.81068 57.4524,17.67767 108.2758,87.2835 150.2602,153.57476-53.033-2.57799-123.7436,69.42168-208.8174,60.21456z" fill="#444f35" stroke="#b9b9b9" stroke-width="8"/>
<path d="m831.95533,265.15346 18.23009-70.15825 123.74369-15.46796 18.2301,74.02524-160.20388,11.60097z" fill="url(#linearGradient3785)" stroke="#000"/>
<path d="m1015.3611,178.97482c5.5243,23.38608 12.7058,46.77217 18.2301,70.15825 36.4602,3.49871 89.217-11.23269 134.2398-39.22233-16.849-15.28382-21.5446-38.85404-152.4699-30.93592z" fill="url(#linearGradient3803)" stroke="#000"/>
<path d="m-74.61693,229.37973 130.44922-129.82303 107.61913-90.62317c2.99104-12.96117 595.06792-2.61735 591.8113,11.49469 6.74562,7.86989-38.51236,252.16079-44.2497,245.46723l-785.62995-36.51572z" fill="url(#linearGradient3813)" stroke="#a6a6a6" stroke-width="4"/>
<path d="m170.3125,3.92468c68.48958-42.70833 176.04167-29.16667 264.0625-43.75 219.79167,2.08333 441.14583-18.48958 613.2813,26.5625 123.9724,17.14519 188.9916,100.60308 295.3124,201.17188-29.6875-.52083-55.4687-2.21355-85.1562-2.73438-41.927-32.55208-81.5104-172.91666-254.6875-175-75.52083-3.64583-131.51042-1.82292-226.5625,7.8125-200.52083-14.84375-369.01042-25-606.25-14.0625z" fill="#444" stroke="#000"/>
<path d="m382.03125,599.23718c14.58333-35.9375 44.79167-110.15625 132.03125-127.34375 115.88542-4.16667 129.42708,61.19792 139.0625,84.375-113.28125-152.08333-248.4375,9.11458-271.09375,42.96875z" fill="url(#linearGradient5395)" filter="url(#filter5379)"/>
<path d="m1227.7344,512.223c14.5834-35.9375 45.5729-136.32812 102.3437-157.42187 68.2292-9.63542 76.3021,56.11979 85.9375,79.29687-70.3125-166.92708-176.5625,51.30208-188.2812,78.125z" fill="url(#linearGradient5393)" filter="url(#filter5379)"/>
<path d="m213.86719,493.3778c6.63992,5.45416 891.02911-129.23671 1296.28901-198.04687 3.726-.63265 1.5839,10.53786-2.1484,11.13281-391.4379,62.39742-1220.3184,202.34501-1293.95398,197.58527-6.87076-.44412-7.38177-7.35631-.18663-10.67121z" fill="#444" stroke="#858585"/>
<path d="m715.2869,309.25285c7.3657,4.41942 14.73139,4.15134 22.48772,9.35201 22.50053-9.51562 37.57918,253.23439-24.68592,399.57814 106.4343-26.51651 214.82172-60.45488 321.2561-86.97138 5.7923-45.57401 62.7565-192.31989-.2011-369.92515-96.85891,5.52427-189.81156,15.34542-286.67047,20.8697-7.73398,9.94368 7.96953,18.32487-32.18633,27.09668z" fill="none" stroke="#000"/>
<path d="m1035.1563,261.73718c65.3646,220.85957-2.0833,313.58886 1.5625,367.96875l158.5937-39.84375c35.9376-78.90625 87.5-184.375 124.2188-196.875-8.8542-52.86458 2.2136-108.46355-26.5625-158.59375-20.5729-9.24479-38.0209-26.30208-42.9688-38.28125-66.1459,4.6875-119.0104,64.0625-214.8437,65.625z" fill="none" stroke="#000"/>
<path d="m-656.64063,396.11218c256.85253,25.76338 515.60709,42.01667 773.82813,60.9375v14.0625c-89.97396-9.2448-175.26042-17.31771-269.92188-15.625-103.57846-8.85417-212.9371-21.61458-320.3125-30.46875-61.19792-5.33854-121.22395-13.02083-182.42187-18.35937l-1.17188-10.54688z" fill="#58743b" stroke="#000"/>
<path d="m166.55679,555.73015c2.39385,26.33236 2.61874,57.46441 7.18156,78.99709 8.71079,6.69196 41.98446.55243 41.98446.55243l-5.80048-78.44467c0,0-29.37072-.55242-43.36554-1.10485z" fill="#db7604" filter="url(#filter3695)" opacity=".87719"/>
<path d="m204.95048,615.5304c0,6.48331-6.30692,11.73907-14.08689,11.73907s-14.0869-5.25576-14.0869-11.73907 6.30692-11.73908 14.0869-11.73908 14.08689,5.25576 14.08689,11.73908z" fill="#fbff72" filter="url(#filter3679)" opacity=".51316" stroke="#fbff72" stroke-width="4" transform="translate(.27621,4.0682016e-7)"/>
<path d="m132.30631,428.67191c144.85545-53.2232 290.05299-83.52307 434.48397-113.80001-44.93074-7.3657-204.76634-26.88479-249.69708-34.25048-23.93851-8.10227-94.2809-6.26085-118.21941-14.36311-123.7437-2.94628-229.80971-10.31198-360.18252,6.62913-39.40647,1.10485-103.11974,5.52427-142.52621,6.62913-121.90232,33.14562-194.08612,49.71844-319.30292,88.38834 113.4317,6.26084 227.9683,6.99741 341.4,13.25826 86.08658,3.31456 325.74788,32.04077 414.04417,47.50874z" fill="#506a36" stroke="#000"/>
<path d="m-656.83592,394.97385c-.73656-4.97185 10.68027-28.72621 30.38351-28.72621 103.85631-25.77994 208.81747-59.29386 312.67377-85.07379-191.50808,9.75954-369.20549,67.58026-390.566,79.54951-8.10227,4.7877-21.17638,7.3657-29.27865,12.1534 71.07897-4.78771 77.52395,4.7877 76.78737,22.09709z" fill="url(#linearGradient5177)" stroke="#000"/>
<path d="m-737.03829,476.86528c-5.89059,21.48875-.67289,41.98663 4.16283,60.41213 .62607,2.38552 2.1602,5.83285 4.89759,5.64187l25.3816-1.77081c-.78125-23.56771-2.25303-46.16867-3.03428-69.73637-11.06771.39062-29.11803-2.89962-31.40774,5.45318z" fill="#ef8b1c" filter="url(#filter5191)"/>
<path d="m-707.383,527.83258c0,5.94939-4.82294,10.77233-10.77233,10.77233s-10.77233-4.82294-10.77233-10.77233 4.82293-10.77233 10.77233-10.77233 10.77233,4.82294 10.77233,10.77233z" fill="#fedd20" filter="url(#filter5195)" opacity=".96053" transform="translate(.41432,-3.45267)"/>
<path d="m-482.82135,410.44181c0,0 16.3526-26.43743 26.51651-35.35534 34.90496-30.62594 328.14174-106.06602 328.14174-106.06602" fill="none" stroke="#000"/>
<path d="m-332.56116,423.70006c9.5754-16.20453 21.66259-46.25905 28.72621-48.61359 145.40628-48.46876 274.74045-76.97152 428.68349-110.48543" fill="none" stroke="#000"/>
<path d="m176.50048,730.29714c8.37848,40.87961 19.24288,80.10194 35.90777,117.66699h.27621" fill="none" stroke="#000"/>
<path d="m-581.40745,638.37722c-11.10867,14.32926 33.66269,75.99619 59.17969,108.14185 24.08854,2.21354 21.31061-2.99479 30.5554-12.10937-25.78125-29.03646-36.90354-56.83164-58.4712-92.03145-9.89584-8.13802-26.87777-9.65875-31.26389-4.00103z" fill="#c9cbc3" stroke="#000"/>
<path d="m-581.25001,644.15905c-2.73438,55.85938 37.69531,89.64844 45.70312,101.75781 9.89583-.0651 7.48698.65105 10.9375-4.29687-17.70833-18.55469-49.08854-57.8125-42.57812-96.09375-4.6875-.91146-7.61719-1.82292-14.0625-1.36719z" fill="#141615" stroke="#000"/>
<g transform="translate(524.42717,63.0394)">
<path d="m-581.40745,638.37722c-9.96689,15.14567 22.33793,73.78648 47.85493,105.93214 19.39291,6.63296 26.55867,1.14842 35.80346-7.96616-20.25698-34.83695-43.11402-90.43889-47.69887-97.69383-7.26748-11.49988-26.60156-14.49249-35.95952-.27215z" fill="#c9cbc3" stroke="#000"/>
<path d="m-581.25001,644.15905c-2.73438,55.85938 30.78997,91.85815 38.79778,103.96752 9.89583-.0651 12.18261,1.20348 15.63313-3.74444-17.70833-18.55469-46.87883-60.57464-40.36841-98.85589-4.6875-.91146-7.61719-1.82292-14.0625-1.36719z" fill="#141615" stroke="#000"/>
</g>
<path d="m-529.22523,543.57676c27.43722,13.81068-11.96926,8.83883-20.43981,15.46795 183.03754,27.25308 374.91391,41.2479 562.37086,61.87185 5.52427-10.68026-44.19417-16.9411-43.08932-25.41165-174.56698-9.39126-316.54078-23.20193-498.84174-51.92815z" fill="#616974" stroke="#000"/>
<path d="m-157.16553,437.78695c11.28207-14.86614 15.20965-37.08678 35.63155-42.8131 147.25557-49.93355 309.38485-89.23687 445.2563-114.90486" fill="none" stroke="#000"/>
<path d="m117.39078,456.56947c3.59078-15.28381 9.11505-23.10986 23.20194-30.93592" fill="none" stroke="#000"/>
</g>
</svg>
