<?xml version="1.0" encoding="UTF-8" standalone="no"?>
<svg height="455.202" viewBox="0 0 451.519 455.202" width="451.51901" xml:space="preserve" xmlns="http://www.w3.org/2000/svg" xmlns:xlink="http://www.w3.org/1999/xlink"><defs><linearGradient id="linearGradient31995"><stop offset="0" stop-color="#999699"></stop><stop offset="1" stop-color="#020000"></stop></linearGradient><linearGradient id="linearGradient20133"><stop offset="0" stop-color="#fff"></stop><stop offset=".5" stop-color="#fff" stop-opacity=".41237"></stop><stop offset="1" stop-color="#fff" stop-opacity="0"></stop></linearGradient><linearGradient id="linearGradient7742"><stop offset="0" stop-color="#fff"></stop><stop offset="1" stop-color="#96939e"></stop></linearGradient><linearGradient gradientUnits="userSpaceOnUse" id="linearGradient2863" x1="243.01611" x2="279.06378"><stop offset="0" stop-color="#373936"></stop><stop offset="1" stop-color="#373936" stop-opacity="0"></stop></linearGradient><linearGradient gradientUnits="userSpaceOnUse" id="linearGradient2875" x1="256.2963" x2="334.83069"><stop offset="0" stop-color="#303232"></stop><stop offset="1" stop-color="#fff"></stop></linearGradient><linearGradient gradientUnits="userSpaceOnUse" id="linearGradient2841" spreadMethod="reflect" x1="239.19496" x2="240.59645" xlink:href="#linearGradient7742" y1="15.962" y2="29.21147"></linearGradient><linearGradient gradientUnits="userSpaceOnUse" id="linearGradient2843" spreadMethod="reflect" x1="242.00545" x2="251.43694" xlink:href="#linearGradient7742" y1="75.18311" y2="79.1981"></linearGradient><linearGradient gradientUnits="userSpaceOnUse" id="linearGradient2845" spreadMethod="reflect" x1="156.88763" x2="169.53111" xlink:href="#linearGradient7742" y1="161.30466" y2="166.12265"></linearGradient><linearGradient gradientUnits="userSpaceOnUse" id="linearGradient2861" spreadMethod="reflect" x1="187.00008" x2="183.68976" xlink:href="#linearGradient7742" y1="21.70409" y2="34.29971"></linearGradient><linearGradient gradientUnits="userSpaceOnUse" id="linearGradient2865" x1="215.08833" x2="293.11493" xlink:href="#linearGradient7742"></linearGradient><linearGradient gradientUnits="userSpaceOnUse" id="linearGradient2867" x1="209.75706" x2="263.70166" xlink:href="#linearGradient7742" y1="268.83087" y2="253.00835"></linearGradient><linearGradient gradientUnits="userSpaceOnUse" id="linearGradient2869" spreadMethod="reflect" x1="203.10762" x2="215.68246" xlink:href="#linearGradient7742" y1="169.68748" y2="175.30667"></linearGradient><linearGradient gradientUnits="userSpaceOnUse" id="linearGradient2871" spreadMethod="reflect" x1="159.0237" x2="269.94516" xlink:href="#linearGradient7742" y1="269.30869" y2="321.05768"></linearGradient><linearGradient gradientUnits="userSpaceOnUse" id="linearGradient2873" spreadMethod="reflect" x1="340.39935" x2="377.5228" xlink:href="#linearGradient7742" y1="219.25325" y2="188.02394"></linearGradient><radialGradient cx="423.86676" cy="109.9699" fx="433.24927" fy="120.62471" gradientTransform="matrix(1.0728,-8.141831e-2,4.385493e-2,.57784,-35.67987,84.20656)" gradientUnits="userSpaceOnUse" id="radialGradient2839" r="24.63173" xlink:href="#linearGradient7742"></radialGradient><radialGradient cx="4.76802" cy="26.07921" gradientTransform="matrix(1,-2.981567e-19,0,.22556,5.109802e-14,20.19668)" gradientUnits="userSpaceOnUse" id="radialGradient2847" r="70.4609" xlink:href="#linearGradient20133"></radialGradient><radialGradient cx="4.76802" cy="26.07921" gradientTransform="matrix(1,4.797595e-17,-2.400938e-17,.22556,4.411878e-14,20.19668)" gradientUnits="userSpaceOnUse" id="radialGradient2849" r="70.4609" xlink:href="#linearGradient20133"></radialGradient><radialGradient cx="4.76802" cy="26.07921" gradientTransform="matrix(1,4.382887e-17,0,.22556,-1.380284e-13,20.19668)" gradientUnits="userSpaceOnUse" id="radialGradient2851" r="70.4609" xlink:href="#linearGradient20133"></radialGradient><radialGradient cx="4.76802" cy="26.07921" gradientTransform="matrix(1,6.895186e-17,2.249924e-18,.22556,-4.86659e-13,20.19668)" gradientUnits="userSpaceOnUse" id="radialGradient2853" r="70.4609" xlink:href="#linearGradient20133"></radialGradient><radialGradient cx="4.76802" cy="26.07921" gradientTransform="matrix(1,3.298685e-17,0,.22556,1.027234e-13,20.19668)" gradientUnits="userSpaceOnUse" id="radialGradient2855" r="70.4609" xlink:href="#linearGradient20133"></radialGradient><radialGradient cx="4.76802" cy="26.07921" gradientTransform="matrix(1,1.767249e-17,2.127646e-17,.22556,6.560413e-14,20.19668)" gradientUnits="userSpaceOnUse" id="radialGradient2857" r="70.4609" xlink:href="#linearGradient20133"></radialGradient><radialGradient cx="4.76802" cy="26.07921" gradientTransform="matrix(1,6.299214e-17,-6.352375e-18,.22556,1.204733e-13,20.19668)" gradientUnits="userSpaceOnUse" id="radialGradient2859" r="70.4609" xlink:href="#linearGradient20133"></radialGradient><radialGradient cx="320.1745" cy="245.32716" fx="316.15952" fy="237.74747" gradientTransform="matrix(1,0,0,1.40372,0,-99.56222)" gradientUnits="userSpaceOnUse" id="radialGradient2877" r="10.51648" xlink:href="#linearGradient31995"></radialGradient><radialGradient cx="247.92567" cy="272.11841" fx="244.64737" fy="269.77106" gradientTransform="matrix(1.38112,-8.702601e-2,.45905,2.0079,-219.4036,-252.6933)" gradientUnits="userSpaceOnUse" id="radialGradient2879" r="8.83298" xlink:href="#linearGradient31995"></radialGradient><radialGradient cx="318.70245" cy="273.72443" fx="315.69122" fy="266.78973" gradientTransform="matrix(2.29046,.41019,-6.95738e-2,.38849,-392.2298,36.65466)" gradientUnits="userSpaceOnUse" id="radialGradient2881" r="13.66164" xlink:href="#linearGradient31995"></radialGradient><radialGradient cx="247.98618" cy="272.22678" fx="241.67123" fy="270.95047" gradientTransform="matrix(1,7.757467e-17,-5.041355e-17,1.43182,7.613527e-14,-117.5057)" gradientUnits="userSpaceOnUse" id="radialGradient2883" r="8.83298" xlink:href="#linearGradient31995"></radialGradient></defs><g transform="matrix(.98672,0,0,.98319,5.99379,4.093203e-2)"><path d="m402.29016,104.58213 .85171,5.96196 10.2205,7.94927 2.27122,9.08489 2.27122,1.13561 19.58929-14.47904c7.86876-1.38098 14.29461-2.55582 12.49171-2.55513l-1.41951-3.12292-33.78442-3.40684-12.49172-.5678z" fill="url(#radialGradient2839)" fill-rule="evenodd"></path><path d="m234.47546,28.00697c0,0 1.606-4.41649 6.02249-6.42398s36.93791-10.03748 40.14991-10.03748 41.7559-1.606 41.7559-1.606l.803,8.02998-55.80837,2.81049c0,0-8.43148,2.0075-11.64348,2.81049s-9.63598,5.62099-9.63598,5.62099l-11.64347-1.2045z" fill="url(#linearGradient2841)" fill-rule="evenodd"></path><path d="m227.64998,106.29929 11.64347,5.21949 25.69594-69.45935 .4015-14.45397-14.05247-1.606-5.62098,4.01499-18.06746,76.28483z" fill="url(#linearGradient2843)" fill-rule="evenodd" stroke="#000"></path><path d="m167.02361,130.79073-30.11243,75.08033 18.46896,4.41649 25.69594-69.05784-14.05247-10.43898z" fill="url(#linearGradient2845)" fill-rule="evenodd"></path><path d="m403.08258,107.55957c0,0-22.17606,9.78356-26.08949,19.56712s-16.95817,64.57148-20.87159,69.78938-6.52237,13.69698-6.52237,13.69698 1.48582,20.9798.65224,31.30739c11.83895,3.46113 16.95816,4.56566 16.95816,4.56566s-6.52237-29.35068-3.26118-33.91634 6.52237-7.17461 6.52237-7.17461 4.42965-.1638 23.48054.65224c16.46899-14.67534 36.52528-35.87305 42.39542-59.35358s1.95671-33.2641 1.95671-33.2641-14.34922,5.2179-18.26264,10.43579-4.59271,4.12182-4.59271,4.12182 .67928-6.07853-3.88638-10.64419-9.13132-9.78356-8.47908-9.78356z" fill="#c53034" fill-rule="evenodd"></path><path d="m129.99032,122.17202c0,0 26.22283-7.11762 33.71507-4.49534s36.33736,15.35909 40.45809,19.47982 26.22283,25.84822 28.4705,32.96585 10.48913,54.31872 10.48913,54.31872l-2.99689,2.24767c0,0-20.31428-4.48148-22.1021-5.61918-4.12073-2.62228-11.23836-19.85443-10.86375-26.59744s-11.23835-28.4705-14.60986-32.59123-21.35288-28.0959-32.21663-32.96585-29.59434-5.99379-30.34356-6.74302z" fill="#7d0000" fill-rule="evenodd"></path><path d="m58.0491,144.08486c1.25506-4.29517 29.35067-30.00291 48.91779-36.52529s54.13569-10.43579 72.39833-1.95671 42.85368,24.59104 52.83121,44.92072c8.34856,17.0228 12.76712,46.00454 12.39251,58.13276-.29089,9.12669-1.95671,18.91488-1.95671,18.91488s-4.92694-6.23506-9.13132-33.91634c-1.21147-7.97624-2.77078-26.33331-20.1357-45.46262-17.90539-19.7247-46.78012-30.22965-56.55066-29.72529-21.77114,1.12383-42.67305,9.31196-53.76108,14.52985s-35.30446,18.99853-41.18793,16.38959c-3.81783-1.69296-4.9703-1.35271-3.81644-5.30155z" fill="#c53034" fill-rule="evenodd"></path><path d="m278.92115,88.89953c0,0 4.89335,8.38861 4.89335,14.68006v13.98101c0,0 4.89336-10.48576 9.08766-9.78671s5.5924-1.3981 13.28196,6.29146 29.84722,23.50229 28.46983,26.03414c-2.81818,5.18021-8.89642,5.06262-8.89642,5.06262s-11.1848-6.63-14.68006-8.72715-7.68955-2.7962-7.68955-2.7962l22.36961,25.16582c0,0 22.17837,41.17033 22.17837,48.16083s3.34796,10.22087 8.94037,1.13322 15.0186-49.9931 17.11575-62.57601 8.74912-20.78028 19.23487-27.77078 15.01861-12.0751 8.72715-14.17225-29.36012-.69905-29.36012-.69905-40.80982,9.86036-49.19843,8.46226-29.2645-16.07817-32.0607-19.57342-11.01554-3.5689-12.41364-2.86985z" fill="#343034" fill-rule="evenodd"></path><path d="m169.54605,102.7637 17.79492-61.29362c0,0 19.77213-11.36898 32.12971-11.86328s28.6696.4943 30.64681,3.46012 4.44873,4.44873 2.47152,9.88607-26.69238,69.69678-26.69238,69.69678l-3.95443,4.44873-26.69238-3.95443-25.70377-10.38037z" fill="#c53034" fill-rule="evenodd" stroke="#000"></path><path d="m265.60811,26.83117c-3.0277,4.23578-3.39227,3.02544-7.36691,5.57046-1.66024,2.58888-3.26805,8.21486.12867,11.54819 1.45464,1.42749 8.99495-1.84854 8.99495-1.84854s11.91657-13.48309 18.83682-18.92043c8.62367-2.0305 22.31716-2.97593 22.31716-2.97593s-4.36289-.97342-4.52224-3.94432c-.26553-4.95061 3.46012-7.90885 3.46012-7.90885s-13.26442-2.21173-23.72656,2.40812-12.23708,7.83822-18.12201,16.07129z" fill="#d23034" fill-rule="evenodd"></path><path d="m327.15563,7.46014c0,0-1.3981-3.84478-3.14572-3.84478s-3.14573,8.03908-3.14573,10.83528 1.74763,9.43718 4.54383,9.43718 2.7962-3.49525 4.54383-3.84478 26.21439-3.14573 27.96202-3.49525 5.5924-2.44668 4.89335-3.84478l-3.49525-6.9905-32.15633,1.74763z" fill="#e02f2c" fill-rule="evenodd" stroke="#000"></path><path d="m183.15123,19.69353c0,0-2.7962-2.09715-4.54383-2.09715s-4.89335,2.09715-4.89335,2.09715l-14.68007,1.3981c0,0-2.09715-2.44668-3.49525-2.44668s-5.24288,3.49525-5.24288,5.24288 2.44668,9.43718 3.84478,9.43718 5.59241-2.09715 5.59241-2.09715l13.63148-1.04858c0,0 1.3981,3.14573 2.7962,3.14573s5.24288,0 6.64098-1.74763-1.74762-2.44668-1.74762-2.44668-3.49526-.69905-3.84478-2.7962 1.04857-4.1943 2.44668-4.54383 4.1943-1.74763 3.49525-2.09715z" fill="#bc2526" fill-rule="evenodd" stroke="#000"></path><path d="m113.24618,43.46124a5.41764,8.38861 0 1,1 -.04103-1.03039" fill="#9b2526" transform="matrix(.58064,0,0,.66667,296.3523,-18.71782)"></path><path d="m244.41952,214.225c15.69282.87744 33.41286,3.66534 36.85539,2.80471s8.75811-3.66534 9.61875-7.9685-6.13584-7.52288-6.13584-7.52288l-21.9308-53.95661c0,0-3.77675.37461-3.77675-3.06792s5.16379-11.18822 7.74569-15.49138 3.44252-8.60632 3.44252-8.60632-15.49137-3.44253-19.79454-3.44253-13.77011,4.30316-13.77011,4.30316l3.44253-8.60632-11.18822-6.88506-6.88506,12.04885-26.45678-4.08035 18.7111,15.26857 4.30316-7.74569c0,0 7.9685,2.24767 12.27166,5.6902s.63782,3.77675.63782,3.77675l-6.17622,11.29963c0,0 13.92191,17.96187 13.92191,27.42882s5.23641,19.24246 5.16379,44.75287z" fill="#af0e0c" fill-rule="evenodd"></path><path d="m162.28125,101.28125c-23.09657-1.58649-43.58879,1.15075-63.0938,10.76486-10.26783,5.15397-21.44016,12.84946-29.74606,20.67406-4.79971,4.71177-13.08349,10.85298-10.66013,15.31108 7.02607-1.38309 9.27443-6.55738 17.15775-13.44083 13.56394-11.84358 28.80006-21.90056 47.08725-24.16931 11.86149-2.14389 21.40515-2.38143 36.005-1.60861 3.33633.1766 13.41629.62751 14.61729-2.70759-1.48239-.60002-9.83391-4.97621-11.36729-4.82366z" fill="#ff3000"></path><path d="m221.38078,30.68647c-9.34241.52744-19.98198,1.90715-28.01999,7.57472-4.11796,3.30064-8.62324,9.00318-8.97069,14.66637-1.62202,4.02804-3.61017,8.18258-4.46568,12.58405-1.05681,5.35171-3.81212,10.20812-4.34843,15.67556-.6696,5.15126-1.49137,10.43315-4.26563,14.93146-2.414,4.42342 2.12399,10.39527 6.88759,7.52227 5.56124-2.65536 6.64778-9.45262 7.66808-14.89771 1.60331-8.05977 8.19517-29.69105 8.22408-32.95762 1.83424-4.06664 3.74616-10.08668 9.78592-12.41635 8.56905-3.30527 19.44644-3.10303 28.90211-.30504 4.57376,1.78797 1.2512,8.926 6.43785,9.68911 6.13587.62604 9.87454-7.03558 7.35704-12.11455-2.59872-4.86202-4.62566-5.54133-12.09673-8.83694-5.29666-1.8664-9.20164-.80669-13.09552-1.11534z" fill="#f00"></path><path d="m170.8571,23.18141c-1.91598-.19411-3.82114.16085-5.72057.33857-2.66143.13606-5.3327-.04492-7.99033.06986-1.06938-.06301-1.7157-1.05685-2.72243-1.28581-1.14687-.30866.59718-.89059.89573-1.31048 .66043-.49616 1.32904-.9882 2.05906-1.37861-.12851.94104-.87648,1.65445-1.07683,2.58173-.35953,1.07676-.44311,2.21606-.58257,3.33538l-4.27438,2.38707c.22238-1.82701.27914-3.77135 1.20181-5.4132 .96835-1.6566 2.74579-2.52763 4.30105-3.51807 1.09687-.59581 1.88703.59561 2.73904,1.06542 .86789.60266 1.93926.27536 2.91677.35057 2.23784-.01596 4.48626.1113 6.71644-.10398 1.36729-.21443 2.74808-.30566 4.13044-.30414 .5229-.0836 1.7219-.06499.73607.47402l-3.3293,2.71168z" fill="#f00"></path><path d="m305.99548,8.54628c-2.41135,1.94549-5.44174,3.25645-8.5907,2.95338-3.96584-.36556-8.25564.37716-12.18019,1.32459-5.65458.85394-9.62307,6.08182-12.08297,9.35241-2.92309,2.12853-4.90937,6.59465-7.55686,9.06282-3.45262,3.5096-7.0478,3.0857-8.4742,3.54546 .56972-1.06965 2.36319-2.86305 1.30676-2.44977 2.63743-1.57777 3.87422-3.93328 6.39568-5.66905 2.59369-1.99753 5.51474-3.76968 7.20058-6.68073 1.25987-1.85297 3.16971-3.11544 4.41238-4.98818 1.18256-1.91601 3.36696-2.7215 5.16539-3.93453 2.33455-1.49567 4.24658-1.33221 6.97094-1.66771 6.38594-.39853 6.96628-.45249 11.98766-1.08576 1.40033.22538 3.78947-.72152 4.61712.09793-.94446.82561-.74499.79088.82841.13915z" fill="#f00"></path><path d="m354.85081,8.06295c-2.65553.30071-5.33292.0954-7.98479.39916-2.11531-.0001-4.23104.15757-6.27428.76614-4.52793,1.27387-19.41877-2.80762-18.53699-4.57771-.13867-1.37445 2.27064-1.03301 3.8839.74077 1.23332,1.48779 26.15222,4.22862-1.23949,4.65008-1.35358,2.86951-1.55282,4.71488-.83494,7.64893 .09062,1.22143 1.74833,2.9404 2.43429,5.11478-.94853.64867-2.41672,1.40974-2.96357-.14807-1.07682-1.41878-1.5496-3.19905-1.60273-4.98763-.23998-2.77151-.61503-5.4348-.28548-8.17077-.89638-3.7007 2.04132-4.75939 4.27076-5.4897 1.82034.4971.41905,3.82032 2.71006,4.13595 1.43994.42147 2.95696-.82731 4.43211-.68782 3.58409.06552 6.60651-.4022 10.41832-.68322 1.83022-.48805 3.9842-.07054 5.85458-.14425 2.41242-.28413 4.84832.00506 7.25229-.36277 1.61528-.09068-.93095,1.14848-1.39117,1.68757l-.14287.10856z" fill="#f00"></path><path d="m177.28949,105.11121c4.22498,1.75773 8.23264,4.22055 12.15768,6.70842 3.6828,2.06277 7.69217,3.07809 11.68351,4.20285 5.13713,1.77595 8.36642,6.43559 12.46095,9.57345 2.90057,3.6511 7.57393,5.56893 9.89632,9.7895 2.84253,4.28472 5.4669,9.64297 6.79076,14.77462 2.25169,5.00827 3.43964,9.114 6.15029,13.98024 2.13624,4.27069 5.73732,22.81755 7.93069,27.08719 2.05689,5.98463-2.80225,33.68975-1.41558,29.83251-.30264-5.68878-5.51929-31.36873-6.53888-38.11048-1.94353-4.48775-3.52983-17.90464-8.19781-28.056-7.529-10.18294-12.88122-21.54445-17.01148-24.21041-3.64977-3.51816-7.16297-7.22926-11.35905-10.1821-3.74184-2.53043-21.07526-10.47878-26.30261-11.78457-1.02896-1.09693 2.50148-2.25458 3.44212-3.37774l.2257-.16398 .08739-.0635z" fill="#d00"></path><path d="m430.23846,116.97365c-5.16856,4.05144-8.52612,7.29188-13.27207,11.875-5.7863-8.99966-10.4924-12.44543-16.25334-10.75138-10.41424,1.61358-19.95502,13.25055-23.0567,22.80972-6.35685,12.564-5.62364,31.78279-11.13696,44.68194-2.03592,7.6358-6.57305,17.90852-9.2636,25.3151 5.05416-2.70819 11.14119-8.97385 13.36144-15.04719 4.45624-13.66739 9.75032-27.06607 13.96498-40.82069 3.72524-7.48851 5.55022-16.0258 10.96875-22.59375 5.2064.59183 14.28832,6.46515 19.91656,4.92291 10.2223-3.23562 11.47467-11.83763 20.85867-16.5989 5.09061-2.87603.05188-6.715-3.50676-5.35659-.89063.46952-1.73707,1.01645-2.58097,1.56383z" fill="#e00"></path><path d="m75.22892,26.07921a70.4609,15.89344 0 1,1 -.53357-1.95222" fill="url(#radialGradient2847)" transform="matrix(.53361,-.2358,0,.75111,90.9671,105.8676)"></path><path d="m75.22892,26.07921a70.4609,15.89344 0 1,1 -.53357-1.95222" fill="url(#radialGradient2849)" transform="matrix(.12725,-.35427,.63371,8.724295e-2,374.2814,157.5109)"></path><path d="m75.22892,26.07921a70.4609,15.89344 0 1,1 -.53357-1.95222" fill="url(#radialGradient2851)" opacity=".89326" transform="matrix(.11904,-.10614,0,.33811,266.383,21.37967)"></path><path d="m75.22892,26.07921a70.4609,15.89344 0 1,1 -.53357-1.95222" fill="url(#radialGradient2853)" opacity=".69101" transform="matrix(.15906,-1.172455e-2,-.20585,.26822,299.1476,5.84702)"></path><path d="m75.22892,26.07921a70.4609,15.89344 0 1,1 -.53357-1.95222" fill="url(#radialGradient2855)" opacity=".12921" transform="matrix(.53361,-.2358,0,.75111,358.733,102.8248)"></path><path d="m75.22892,26.07921a70.4609,15.89344 0 1,1 -.53357-1.95222" fill="url(#radialGradient2857)" opacity=".19663" transform="matrix(.58069,-5.606456e-2,-.23616,.71302,342.1451,108.4373)"></path><path d="m75.22892,26.07921a70.4609,15.89344 0 1,1 -.53357-1.95222" fill="url(#radialGradient2859)" opacity=".25843" transform="matrix(.32522,-.41096,1.62947,-.16364,285.9027,148.7956)"></path><path d="m212.39301,32.02196c0,0 .803-5.62099-2.00749-7.22698s-11.24198-5.62099-20.07496-5.21949-13.24947,4.41649-13.24947,4.41649l2.409,5.21949c0,0 5.21948-.803 9.63597.803s6.02249,2.81049 8.43148,4.01499 14.45397-2.0075 14.85547-2.0075z" fill="url(#linearGradient2861)" fill-rule="evenodd"></path><path d="m267.03557,116.22263 11.53003-29.30325-.4612-8.6994-8.30162-5.49436 .4612-5.0365-2.306-7.77033-6.91803-5.96558c0,0-6.45682,15.10949-8.30162,19.23026s-4.15081,11.90445-4.15081,11.90445l-5.07322,15.56736 23.52127,15.56735z" fill="url(#linearGradient2863)" fill-rule="evenodd"></path><path d="m216.44897,240.47428 75.30532,10.7579 .86063,24.95834-23.66739,7.31537-43.0316-16.35201-10.32759-13.3398 .86063-13.3398z" fill="url(#linearGradient2865)" fill-rule="evenodd" stroke="#000"></path><path d="m242.81496,226.68816 1.5214-3.65135h4.25991l18.56104,24.03807c0,0-.91283,22.51668 0,24.95091s3.95564,14.9097 3.95564,14.9097-8.82411-22.51668-8.82411-26.16803-.91283-10.64978-.91283-10.64978l-18.56105-23.42952z" fill="#373936" fill-rule="evenodd" stroke="#000"></path><path d="m233.07802,226.0796 10.04122.60856 18.56104,23.12524c0,0 0,23.12523 5.47703,30.73222s15.82253,14.60541 15.82253,14.60541l-44.72907-9.12838c0,0-9.12838-13.69258-10.04122-17.64821s-4.56419-21.60384-4.56419-21.60384l9.43266-20.691z" fill="url(#linearGradient2867)" fill-rule="evenodd" stroke="#000"></path><path d="m366.16869,206.58071c-4.75056,15.00461-4.23375,20.68428 1.55569,40.0152-25.867-17.03605-34.69422,9.68219-36.34628,33.88958 2.77097,74.27785 23.07083,84.67939 57.32115,85.10972 35.6926.46001 56.33511-42.80939 58.45136-87.51034l-.14834-27.57221c-2.02042-23.83626-9.66661-46.15893-21.90707-52.28644-22.36086-11.19373-16.62788-5.56683-29.7737,6.46635-10.04258.53747-28.50214,1.88799-29.15281,1.88814zm31.27053,14.18001c12.0264-.35359 20.57098-2.18339 26.08748,14.92369l1.82825,6.76579c6.99964,31.64031-2.81309,70.93665-24.16163,89.94385-18.90162,16.82862-32.20164-7.79641-34.56456-20.91453-5.95417-33.05555-3.07001-48.23512 14.15259-78.28046 4.69936-8.19817 9.91135-12.23998 16.65787-12.43834z" fill="#303232"></path><path d="m104.0625,198.875c-47.26801.00861-95.83311,52.68365-101.59375,118.875-7.55968,87.35708 37.7035,128.84374 99.9375,128.84375s103.90414-57.63609 107.59375-118.75l2.71875-31.1875c-7.04504-65.17655-46.30235-94.5132-105.25-97.6875-1.13234-.06098-2.27182-.09396-3.40625-.09375zm14.71875,35.4375c20.96762-.48342 40.41342,12.17416 50.03125,35.5625l3.1875,9.25c12.20364,43.25777-4.90454,96.98264-42.125,122.96875-32.95433,23.00764-65.81273,8.63958-79.59375-28.59375-15.53323-41.96744-.80384-88.23875 31.49749-120.39871 10.19382-10.1492 25.24018-18.5176 37.00251-18.78879z" fill="#303232" transform="translate(-8.283991e-6)"></path><path d="m110.367,412.49924-.028-.05301" fill="none" stroke="#000" stroke-linejoin="bevel" stroke-width="1.698"></path><path d="m156.343,439.38623-.024-.00598" fill="none" stroke="#000" stroke-linejoin="bevel" stroke-width=".7058"></path><path d="m155.48399,360.72122-.09399.32102" fill="none" stroke="#000" stroke-linejoin="bevel" stroke-width="1.698"></path><path d="m161.919,353.37723-.094.32101m6.53-7.66501-.094.32101" fill="none" stroke="#000" stroke-linejoin="bevel" stroke-width="1.698"></path><path d="m155.41701,361.09424-.02701-.052" fill="none" stroke="#000" stroke-linejoin="bevel" stroke-width="1.698"></path><path d="m181.226,331.34724-.093.32099m6.53-7.664-.094.32" fill="none" stroke="#000" stroke-linejoin="bevel" stroke-width="1.698"></path><path d="m161.853,353.75024-.028-.052" fill="none" stroke="#000" stroke-linejoin="bevel" stroke-width="1.698"></path><path d="m168.289,346.40723-.028-.05298" fill="none" stroke="#000" stroke-linejoin="bevel" stroke-width="1.698"></path><path d="m181.16,331.72025-.027-.05201" fill="none" stroke="#000" stroke-linejoin="bevel" stroke-width="1.698"></path><path d="m66.923,434.092l-.536.135" fill="none" stroke="#000" stroke-linejoin="bevel" stroke-width=".7058" transform="translate(2.249931e-22,2.43424)"></path><path d="m67.109,434.092l-.536.134" fill="none" stroke="#000" stroke-linejoin="bevel" stroke-width="1.698" transform="translate(2.249931e-22,2.43424)"></path><path d="m67.526,436.49723-.26.065m.42-.02799-.259.06399" fill="none" stroke="#000" stroke-linejoin="bevel" stroke-width=".7058"></path><path d="m248.402,277.40323-.048-.007-.09.01101" fill="none" stroke="#000" stroke-linejoin="bevel" stroke-width="1.698"></path><path d="m66.387,436.66224 .08-.012c.035-.00201.071.004.107.01" fill="none" stroke="#000" stroke-linejoin="bevel" stroke-width="1.698"></path><path d="m66.43,435.31723-.181-.11899-.157-.087m.339.20599c-.031-.034-.063-.068-.104-.091l-.019-.01" fill="none" stroke="#000" stroke-linejoin="bevel" stroke-width="1.698"></path><path d="m182.105,330.34524 .123-.044c.042-.016.083-.03001.126-.045l.13-.04701" fill="none" stroke="#000" stroke-linejoin="bevel" stroke-width="1.698"></path><path d="m169.234,345.03123 .122-.044 .126-.045 .13-.046" fill="none" stroke="#000" stroke-linejoin="bevel" stroke-width="1.698"></path><path d="m162.798,352.37523 .122-.044 .126-.045 .131-.04699" fill="none" stroke="#000" stroke-linejoin="bevel" stroke-width="1.698"></path><path d="m156.362,359.71924c.04-.01501.081-.02901.122-.04401l.126-.04499 .13-.047" fill="none" stroke="#000" stroke-linejoin="bevel" stroke-width="1.698"></path><path d="m143.49,374.40524 .123-.04301 .126-.04599c.043-.015.086-.03001.13-.04701" fill="none" stroke="#000" stroke-linejoin="bevel" stroke-width="1.698"></path><path d="m130.619,389.09323 .122-.04399c.042-.015.084-.03001.126-.04501l.13-.04599" fill="none" stroke="#000" stroke-linejoin="bevel" stroke-width="1.698"></path><path d="m111.313,411.12324 .122-.04401 .126-.04499 .13-.04601" fill="none" stroke="#000" stroke-linejoin="bevel" stroke-width="1.698"></path><path d="m169.807,345.74723c.071-.10899.142-.21799.16-.34199 .017-.106-.005-.22301-.068-.30901-.065-.08999-.176-.14599-.286-.2m-.373.67501 .178.06 .188.05899 .202.059m-.568-.17799c.059-.065.117-.13.144-.21301 .021-.063.025-.13799-.005-.19399s-.087-.094-.145-.13301" fill="none" stroke="#000" stroke-linejoin="bevel" stroke-width="1.698"></path><path d="m162.804,352.91523 .178.05901 .188.06 .202.058m-.568-.17701c.058-.065.117-.13099.145-.213 .021-.063.023-.13899-.006-.19399-.028-.05601-.086-.09501-.145-.13301" fill="none" stroke="#000" stroke-linejoin="bevel" stroke-width="1.698"></path><path d="m156.936,360.43424c.072-.109.142-.21801.16-.34301 .016-.10499-.006-.22299-.068-.30899-.065-.09001-.175-.14501-.287-.2m-.373.676 .179.06099 .188.05901 .201.05899m-.568-.17899c.06-.06401.117-.13.145-.212 .021-.06301.024-.13801-.006-.19501-.028-.05499-.087-.09299-.145-.13199" fill="none" stroke="#000" stroke-linejoin="bevel" stroke-width="1.698"></path><path d="m144.065,375.12124c.07-.108.142-.217.16-.34301 .016-.105-.007-.223-.068-.30799-.065-.09-.176-.145-.287-.20101m-.373.67601 .178.06 .188.05899 .202.05901m-.568-.178c.059-.065.117-.13001.145-.21201 .022-.063.024-.13899-.006-.19599-.028-.05401-.086-.09301-.145-.132" fill="none" stroke="#000" stroke-linejoin="bevel" stroke-width="1.698"></path><path d="m111.886,411.83923c.071-.109.142-.21799.16-.34299 .016-.104-.006-.22201-.068-.308-.066-.09001-.176-.14501-.287-.20001m-.373.675 .178.06 .188.05901 .202.05899" fill="none" stroke="#000" stroke-linejoin="bevel" stroke-width=".4252"></path><path d="m111.318,411.66323c.059-.065.117-.13099.145-.212 .021-.064.024-.139-.006-.19599s-.086-.093-.145-.132" fill="none" stroke="#000" stroke-linejoin="bevel" stroke-width="1.698"></path><path d="m156.111,426.89923-.028.168c-.009.05901-.017.11701-.023.17601s-.012.125-.017.188m.002,0c.163.007.326.014.485-.009 .182-.025.36-.089.517-.179 .149-.08501.279-.19301.41-.30101m-.398-.37 .131.113 .133.122c.046.044.091.089.136.13401" fill="none" stroke="#000" stroke-linejoin="bevel" stroke-width=".4252"></path><path d="m93.139,415.07324c37.423,9.79199 78.238-22.308 91.161-71.695s-6.939-97.365-44.362-107.157" fill="none" stroke="#000" stroke-linecap="round" stroke-width=".7058"></path><path d="m139.938,236.22124c-37.423-9.792-78.238,22.308-91.161,71.695s6.939,97.36499 44.363,107.157" fill="none" stroke="#000" stroke-linecap="round" stroke-width="1.698"></path><path d="m180.753,275.14423c-8.629-20.84399-23.755-33.582-41.03-38.10199l.43-1.64401c17.408,4.55601 32.397,18.35401 41.093,39.35701l-.493.38899"></path><path d="m93.354,414.25223c18.54,4.851 38.088-.269 54.434-13.123l.239.57801c-16.648,13.094-36.219,19.128-55.103,14.188l.43-1.64301"></path><path d="m147.744,206.38824c-49.908-13.059-104.339,29.749-121.574,95.613s9.254,129.84699 59.163,142.90499" fill="none" stroke="#000" stroke-linecap="round" stroke-width=".7058"></path><path d="m147.529,207.20924c-24.782-6.48401-50.855.495-72.705,17.678l-.24-.578c22.152-17.422 48.249-25.31601 73.374-18.742l-.429,1.642"></path><path d="m65.263,439.88923c1.436.37601 2.875.70501 4.113.94601m59.828-239.04601c-.528-.15099-1.057-.29499-1.506-.41199-49.907-13.06501-104.342,29.738-121.583,95.6s9.241,129.84699 59.147,142.911m.759.195 20.061,5.01499m40.856-243.916 20.055,5.01401m-59.864,206.915c35.962,4.164 71.817-27.719 83.799-73.077 12.18-46.54901-4.765-91.844-38.348-105.193m-79.98,142.739 51.916-38.18601m-9.226-3.399-47.126,28.65201m-2.768-15.55101 62.034-42.23499m-62.552,28.671 54.782,4.348m-3.885-14.56801-27.661,75.32301m-8.729-10.56 62.127-43.397m-14.568.48499-28.168,61.80201m9.975,4.757 18.192-66.55901m-5.826,66.52501 23.793-55.356m-13.596,53.414-9.712-51.957m22.337,48.072-5.827-44.67401m15.539,39.81901-6.313-37.876m19.424,30.106-6.313-41.76001m16.025,31.56301-24.279-19.423m31.562,6.313-23.308-18.452m-69.924-87.407 29.135,73.81m-38.195-62.502 46.936,50.84799m-53.247-38.587 58.588,22.077m-64.354-6.04699 64.354,6.04699m-67.605,9.10201 58.379,18.57599m-25.384-84.306 41.409,45.45901m-27.933-55.886 23.076,72.39599m-11.952-78.05099 9.524,91.16199m1.796-94.55899-9.565,97.47199m20.691-98.59899-10.493,82.57499m12.45-82.54499 3.088,82.05999m10.733-79.78499-28.214,74.92899m36.419-67.49599-28.164,66.03899m36.905-56.814-49.044,47.10201" fill="none" stroke="#000" stroke-linecap="round" stroke-width="1.698"></path><path d="m115.27,374.32024c18.337,4.798 38.336-10.93101 44.668-35.13001s-3.4-47.707-21.737-52.505-38.335,10.93101-44.667,35.13 3.4,47.70701 21.736,52.50501" fill="#fff" stroke="#000" stroke-linecap="round" stroke-width="1.698"></path><path d="m72.67133,297.01135a40.14991,48.98289 0 1,1 -.30403-6.01666" fill="#857979" stroke="#140000" stroke-width=".887" transform="matrix(.85679,.12994,-.13359,.90477,138.4882,57.18219)"></path><path d="m142.613,288.27524c-17.071-.56401-33.283,14.865-38.882,35.968-5.782,22.09799 1.831,43.61899 17.329,50.917" fill="none" stroke="#000" stroke-linecap="round" stroke-width=".7058"></path><path d="m148.272,283.153-7.269,27.862-35.516,19.632 42.785-47.494z" fill="#fff" transform="translate(2.249931e-22,2.43424)"></path><path d="m148.272,283.153-7.269,27.862-35.516,19.632" fill="none" stroke="#000" stroke-linecap="round" stroke-width=".7058" transform="translate(2.249931e-22,2.43424)"></path><path d="m137.773,317.879-6.865,18.979 11.711,9.691 14.132.808-18.978-29.478z" fill="#fff" transform="translate(2.249931e-22,2.43424)"></path><path d="m137.773,317.879-6.865,18.979 11.711,9.691 14.132.808" fill="none" stroke="#000" stroke-linecap="round" stroke-width=".7058" transform="translate(2.249931e-22,2.43424)"></path><path d="m185.825,233.485-33.112,81.972 33.112-81.972z" fill="#fff" transform="translate(2.249931e-22,2.43424)"></path><path d="m185.825,235.91924-33.112,81.972" fill="none" stroke="#000" stroke-linecap="round" stroke-width=".7058"></path><path d="m59.628,148.15624c0,0 0,5.136 19.004-2.56801s54.479-33.84899 87.83-25.682c25.167,6.164 54.444,28.25001 62.662,52.90401s6.677,50.334 13.868,53.416m-183.364-78.07c-4.109-3.08201-1.541-6.678 10.786-16.94901s56.499-49.308 120.188-20.03099c63.689,29.27499 55.985,114.02299 52.39,115.051m0-.001c0,0-15.409-.51401-22.086-3.59601s-7.19-5.13599-10.786-19.518c-3.595-14.381-22.40633-80.91677-80.95933-80.40278" fill="none" stroke="#000" stroke-linecap="round" stroke-width="1.698"></path><path d="m231.691,127.61124-42.63,115.564c0,0-9.34-35.01601-9.292-31.889l38.055-89.32601c0,.00101 6.163-4.62099 13.867,5.65101" fill="url(#linearGradient2869)" stroke="#000" stroke-linecap="round" stroke-width="1.698"></path><path d="m179.769,208.853-29.882,69.857-10.903.808-10.499,29.478-23.824,18.171" fill="none" stroke="#000" stroke-linecap="round" stroke-width="1.698" transform="translate(2.249931e-22,2.43424)"></path><path d="m104.661,329.60123c0,0-.808,20.59501 3.634,25.036" fill="none" stroke="#000" stroke-linecap="round" stroke-width=".7058"></path><path d="m108.295,354.63723c4.442,4.44101 54.513,4.038 54.513,4.038l2.423-6.058-7.269-7.67199 5.25-4.846 1.615-22.209 26.651-69.05-1.211-31.9c0,0-.808-2.42301-10.499-5.653" fill="none" stroke="#000" stroke-linecap="round" stroke-width="1.698"></path><path d="m137.658,201.257 27.332-70.4-27.332,70.4z" fill="#fff" transform="translate(2.249931e-22,2.43424)"></path><path d="m137.658,203.69124 27.33201-70.40001" fill="none" stroke="#000" stroke-linecap="round" stroke-width="1.698"></path><path d="m155.465,206.64 23.191-63.359-23.191,63.359z" fill="#fff" transform="translate(2.249931e-22,2.43424)"></path><path d="m155.465,209.07423 23.191-63.35899m-56.213,89.321-33.429,87.691c0,0-.969,9.20499 2.907,12.59699m70.888,23.351 8.36,3.863m-7.957-22.438 13.983,4.907m-12.601-16.43699 15.34,3.835m-15.34-3.835 13.697-11.50501m-9.313-6.02599 9.313-7.671m8.632-259.97001c6.912-15.206 72.92-22.463 66.354-1.728s-27.647,72.22901-27.647,72.22901 .345,7.258-29.03-.346m-9.677-70.15501-16.243,59.442m69.119,11.404-5.185,14.16899-3.456,2.419m8.641-16.58799c0,0-.346-4.49201-9.677-7.604m8.295,5.185 24.191-66.35401" fill="none" stroke="#000" stroke-linecap="round" stroke-width="1.698"></path><path d="m189.47,22.94324c24.171,8.905 22.899,99.23001-43.891,257.618m37.362-259.315c0,1.272 30.064-5.3 30.064,9.33" fill="none" stroke="#000" stroke-linecap="round" stroke-width="2.8346"></path><path d="m308.18,20.58524-19.217,1.569c0,0-3.921.785-9.02,6.667s-11.766,15.295-20.785,14.903m47.991-35.774-20.671,1.772c0,0-1.38.187-3.767,1.223-2.405,1.044-7.04,3.448-12.348,9.573l-1.977,2.331c-2.234,2.662-4.67,5.968-7.775,7.797-.297.175-.582.375-.921.413" fill="none" stroke="#000" stroke-linecap="round" stroke-width="1.698"></path><path d="m260.612,30.64524c-4.983,2.097-7.496,13.829 1.996,14.826" fill="none" stroke="#000" stroke-linecap="round" stroke-width=".7058"></path><path d="m307.149,7.95024c-5.636,2.439-4.851,12.243 1.031,12.635m-3.529-9.412 15.688-.784m-15.248,8.203 16.429-1.073m6.27-9.483c-.784-5.883-7.844-8.628-7.06,5.882m.23.365c0,0 3.3,17.676 8.397,5.126m-22.208-11.459c0,0 2.029-.97 2.679,2.598m-1.104,10.314c.065,0 1.362-.454 1.622-1.946m15.204-11.398 32.667-2.536m-31.616,14.371 33.004-3.172m0,.001c4.856-.396 2.974-10.803-1.388-11.199" fill="none" stroke="#000" stroke-linecap="round" stroke-width="1.698"></path><path d="m358.217,4.98224c-3.313,3.502-2.366,9.716 1.388,11.199m-33.45-4.798c-1.45,1.933-1.208,3.624-.483,5.074" fill="none" stroke="#000" stroke-linecap="round" stroke-width=".7058"></path><path d="m278.853,12.37924c0,0-42.833,3.945-44.242,16.626m35.327-7.979-1.035.167c-7.375,1.215-17.162,3.223-23.572,6.557-1.512.786-2.873,1.454-3.459,2.501m-61.24-8.62c0,0 19.238-3.078 24.24,10.389m-22.984-2.539c0,0 1.573-.231 3.805-.2 2.799.04 6.836.301 9.712,2.647 .854.696 1.558,1.631 2.014,2.86m-16.787-13.157c-4.232.77-2.549,8.05 1.256,7.85m1.053-8.235c-2.309-5.771-9.988-3.787-9.988,3.932 0,7.782 6.258,12.138 12.741,4.103m-12.514,1.561-14.944,1.334c-.534,2.936-7.472,1.868-6.938-6.405s6.671-7.205 7.472-5.604 14.944-.267 14.944-.267m90.559,7.889c0,0-15.362-4.076-17.871,2.508m-3.41,195.929 18.586,23.67599c0,0 0,45.232 28.075,44.713 28.075-.52099 45.753-9.358 45.753-9.358m-52.512,9.358c-.52,0-43.153-8.839-43.153-8.839s-14.037-10.39799-15.597-38.993l8.904-20.629m-7.864,15.94901-8.318-1.03901-.52,12.99701 9.878,12.47899m42.632,16.11701 24.956-6.75901-.52-23.39599-25.476-5.71901" fill="none" stroke="#000" stroke-linecap="round" stroke-width="1.698"></path><path d="m267.817,246.78323c0,0-3.64,21.83601 2.079,32.75401m17.678-25.476 1.039,21.83699" fill="none" stroke="#000" stroke-linecap="round" stroke-width=".7058"></path><path d="m267.817,246.78323-19.237-23.916-4.664.36101m10.24,6.897 28.219,4.18c0,0 9.878.52099 14.558-3.119s2.079-29.63501 2.079-29.63501l-19.566-16.35999m6.048,17.399c.52,0-21.836-53.55101-21.836-53.55101s-8.839-4.67999 1.039-17.15699 10.398-37.434 4.159-42.112m-18.717-7.28 22.837,17.496m-29.596.18101c0,.521 26.797,19.73599 26.797,19.73599s-24.466-6.627-31.476.54001m34.314,93.065c0,0-3.859-37.87301-5.665-55.602m-1.613,53.523-8.318-82.14601m1.039,80.067-8.319-82.667m.521,82.667-7.799-85.26699m-1.797,51.19599-5.482-53.79599m33.274-31.71401 2.33-4.995c0,0 9.824,3.93 11.508,11.788s3.088,11.50799 1.684,19.367m-.001.00099c0,0 7.859-12.34999 14.596-7.018s32.839,27.22701 32.839,27.22701 7.298,5.052 0,7.85799c0,0-2.807,4.21-10.666-1.12199s-17.121-17.12101-34.522-1.965m-9.543-51.926c7.297-1.403 10.665-1.123 17.963,6.456s21.893,18.80599 38.453,16.278c16.56-2.525 31.436-5.613 38.452-7.858s18.806-1.684 26.384-.842 10.104,6.175-3.088,13.47199-17.121,14.03501-20.489,26.94501-11.227,65.678-23.577,69.327m17.402-6.736 24.138-.842c0,0 2.526.562 7.579-4.21001s46.592-47.154 37.891-86.16799m-34.243-3.92901c0,0 10.665,4.491 10.665,12.06901s3.368,6.45599 5.614,1.965 9.262-9.26301 26.103-12.63001c7.017-.28099 12.35-5.895-41.259-7.85899" fill="none" stroke="#000" stroke-linecap="round" stroke-width="1.698"></path><path d="m282.414,119.85923c0,.28-2.807,11.227-12.069,17.401" fill="none" stroke="#000" stroke-linecap="round" stroke-width=".7058"></path><path d="m277.081,88.98423c0,0 4.21-7.297.28-10.946s-17.683-14.876-26.103-1.403" fill="none" stroke="#000" stroke-linecap="round" stroke-width="1.698"></path><path d="m260.24,53.62024c0,0 13.473,4.771 10.104,17.683" fill="none" stroke="#000" stroke-linecap="round" stroke-width="2.8346"></path><path d="m304.562,134.08223c0,0 35.216,37.53301 41.24,63.01901 6.023,25.48499 5.561,39.851 3.707,48.65399m2.317-4.63399c1.391.464 15.755,5.09699 15.755,5.09699m1-40.19199c-5.171,3.12199-9.804,14.706-1,40.19099" fill="none" stroke="#000" stroke-linecap="round" stroke-width="1.698"></path><path d="m364.79999,209.61124-3.24399-8.80301" fill="none" stroke="#000" stroke-linecap="round" stroke-width=".7058"></path><path d="m-43.04766,299.96954c0,37.44364-27.97628,66.6905-57.26951,59.32512-29.00214-7.2922-39.89844-19.45075-39.89844-56.89439s11.08686-62.64535 41.13923-59.3251c44.0023,4.86146 52.19026,14.31544 55.61383,48.56236" fill="#857979" stroke="#140000" stroke-width=".887" transform="matrix(.52566,0,0,.53666,453.9667,117.2664)"></path><path d="m349.509,245.75523 63.019,23.632 6.487,5.098h8.341l2.78,7.877-6.951,6.48701-72.749-22.70501-6.024-1.39099v6.48699c0,0-8.804,6.48701-8.341,6.48701s-.665,7.529-.665,7.529" fill="none" stroke="#000" stroke-linecap="round" stroke-width="1.698"></path><path d="m345.802,261.04624 2.78-11.121m1.854,12.04799 2.78-11.12099" fill="none" stroke="#000" stroke-linecap="round" stroke-width=".7058"></path><path d="m286.624,140.91024c26.742,29.77799 51.301,57.11699 52.691,77.96899s-8.341,29.19201-6.487,34.75301-1.391,13.90099-4.634,17.14599" fill="none" stroke="#000" stroke-linecap="round" stroke-width="1.698"></path><path d="m288.994,138.78124c18.904,21.05099 36.698,40.91999 46.173,58.154 4.277,7.781 6.883,15.07599 7.326,21.732 .89,13.34-2.519,21.823-4.913,27.73599-.884,2.18201-1.657,3.91301-1.789,5.41201-.025.287-.025.55699.059.80899 .694,2.081.852,4.472.572,6.912-.494,4.32101-2.382,8.778-4.491,11.718m9.753-15.70999c1.496.279 3.101-1.596 3.583-4.18801s-.338-4.918-1.834-5.19599-3.101,1.596-3.584,4.187 .339,4.91899 1.835,5.197" fill="none" stroke="#000" stroke-linecap="round" stroke-width=".7058"></path><path d="m315.314,278.17924c-5.09,0-2.545,2.545-7.403,4.396s-2.313,2.54499-2.776,4.39599-2.775,3.70101-3.007,1.156c-.232-2.54499-2.545-2.776-6.709-2.313s-14.343-1.38799-11.104-6.24599m34.469.22999c-4.164,1.38801-2.776,3.23901-7.402,4.396s-3.239,4.62701-2.082,5.78301" fill="none" stroke="#000" stroke-linecap="round" stroke-width=".7058"></path><path d="m285.494,202.59024c0,0 4.61-.68 4.819,4.54499 .209,5.226-4.808,8.988-5.853,8.15101s-1.463,3.972-13.585,1.673-25.079-3.763-24.243-3.345" fill="none" stroke="#000" stroke-linecap="round" stroke-width="1.131"></path><path d="m317.724,178.42023c-2.79-3.256-7.76539-.42031-7.674,7.674 .09155,7.92114 5.581,5.117 3.256,10.23301s14.884,6.04699 14.884,6.04699l-.232,31.165m81.307,76.34201c9.467,1.516 19.27-10.551 21.894-26.948s-2.924-30.921-12.392-32.43601" fill="none" stroke="#000" stroke-linecap="round" stroke-width="1.698"></path><path d="m418.767,250.49723c-6.78-1.08499-13.733,4.79601-18.17,14.41501m-4.121,15.601c-1.53,15.38799 4.068,27.92699 12.789,29.368" fill="none" stroke="#000" stroke-linecap="round" stroke-width=".7058"></path><path d="m418.632,251.33623c-4.6-.736-9.426,1.448-13.275,6.188l-.206-.538c4.074-5.01499 8.883-8.10499 13.75-7.32599l-.269,1.67599"></path><path d="m398.716,299.02123c2.391,6.25901 6.347,9.327 10.683,10.02101l-.269,1.677c-4.438-.711-8.329-4.84401-10.777-11.25101l.363-.447"></path><path d="m418.766,250.49723-19.794-2.375m10.293,61.75901-17.419-3.563" fill="none" stroke="#000" stroke-linecap="round" stroke-width="1.698"></path><path d="m406.071,248.97323c-1.542-1.143-3.176-1.81799-4.724-2.03799" fill="none" stroke="#000" stroke-linecap="round" stroke-width=".7058"></path><path d="m401.347,246.93424c-6.172-.988-12.486,3.79699-16.925,11.91199m-5.366,18.10401c-1.529,15.387 4.068,27.926 12.789,29.368" fill="none" stroke="#000" stroke-linecap="round" stroke-width="1.698"></path><path d="m405.959,249.29724c-1.524-1.129-3.217-1.308-4.746-1.52401l.269-1.67699c1.565.22299 3.14,1.39599 4.7,2.553l-.223.648"></path><path d="m390.658,339.96924c18.457,2.517 37.142-22.73901 41.732-56.41s-6.648-63.00801-25.104-65.52501" fill="none" stroke="#000" stroke-linecap="round" stroke-width=".7058"></path><path d="m407.286,218.03323c-14.304-1.94899-28.744,12.781-36.789,35.591m-4.423,17.40101c-.201,1.19799-.383,2.39299-.521,3.41899-4.592,33.671 6.648,63.008 25.104,65.524" fill="none" stroke="#000" stroke-linecap="round" stroke-width="1.698"></path><path d="m428.312,239.34223c-4.874-12.72099-12.638-19.30699-21.141-20.46699l.229-1.683c8.602,1.173 16.32,8.82399 21.25,21.69199l-.338.458"></path><path d="m390.773,339.12824c9.101,1.241 18.4-3.99201 25.849-14.06l.204.531c-7.656,10.34999-16.927,16.486-26.282,15.21099l.229-1.68199"></path><path d="m381,335.78224c11.476.18 22.645-9.94801 30.437-25.78501m9.202-59.01899c-2.175-15.727-7.974-27.245-15.573-33.113m-6.886,90.03599-21.774,22.17001m15.44,7.918v-31.671m3.167,1.58299 11.085,21.37901m0-18.212-5.938,21.37899m-20.587-39.98499 .396,40.38099m3.167-30.48399-12.669,13.45999m25.734-67.697-5.938-23.754m4.354-2.77099c0,.39599-10.194,37.25-10.194,37.25m-3.662-22.602c.396.39599 10.293,13.45999 10.293,13.45999m5.147-1.583 11.48-27.713m-6.729-1.18699c.396,0 5.118,29.75099 5.118,29.75099m-4.723-2.03899 18.211-16.62701m-5.938-5.939-2.771,25.73301m-23.742,115.91299c26.34,3.59201 53.007-32.45299 59.56-80.50899s-9.488-89.92401-35.829-93.517" fill="none" stroke="#000" stroke-linecap="round" stroke-width="1.698"></path><path d="m410.837,191.98824c-.688-.093-1.374-.16-1.964-.19301m-29.168,13.84401c-6.461,6.749-12.027,15.36599-16.305,24.647m-11.381,37.33099c-.287,1.71101-.545,3.416-.742,4.88101-6.553,48.055 9.489,89.924 35.83,93.51599" fill="none" stroke="#000" stroke-linecap="round" stroke-width=".7058"></path><path d="m357.026,335.70123c6.968,18.18701 18.038,27.813 30.195,29.472l-.229,1.68301c-12.255-1.672-23.28-12.36401-30.305-30.697l.339-.45801"></path><path d="m369.533,363.79523 .3.039" fill="none" stroke="#000" stroke-linecap="round" stroke-width=".7058"></path><path d="m332.329,286.59623c-1.351,42.173 14.566,73.90701 37.204,77.199m.26.03501 17.573,2.21799" fill="none" stroke="#000" stroke-linecap="round" stroke-width="1.698"></path><path d="m85.333,444.90623c49.908,13.05901 104.339-29.75 121.573-95.613s-9.254-129.84599-59.162-142.90499" fill="none" stroke="#000" stroke-linecap="round" stroke-width="1.698"></path><path d="m179.769,211.28724-29.881,69.85699-10.903.808-12.35323,28.68333-21.96977,18.96567c0,0-.808,20.59501 3.634,25.036s54.513,4.038 54.513,4.038l2.423-6.058-7.269-7.67199 5.25-4.846 1.615-22.209 26.651-69.05-1.211-31.9c-.001,0-.809-2.42301-10.499-5.653z" fill="#fff"></path><path d="m179.30958,211.35679 11.75243,4.89411 .93785,32.35153-26.40016,67.81109-2.7672,24.90487-4.2625,4.26249 7.25306,7.4474-2.19434,6.38864-54.42176-2.32051-3.71313-9.00222-1.43288-18.66484 22.60815-19.46955 12.2781-28.37423 10.94266-.25235 29.41972-69.97643z" fill="url(#linearGradient2871)" fill-rule="evenodd" stroke="#000"></path><path d="m428.12531,275.29209-9.65269.48338-6.81367-6.24586-62.85755-22.70061c0,0 2.67017-21.58821-1.30447-38.05457s-18.12334-50.16213-36.33955-66.43324c-8.46941-7.56506-37.2642-43.61666-61.17934-58.16415-6.85071,10.35739-1.93264,7.24428-5.1125,15.57874 24.49221,18.9421 36.01769,31.08366 65.72404,67.56885 30.02897,36.88143 31.01195,44.67513 28.67417,65.01372-1.41951,12.34978-6.45879,16.46636-6.03293,21.75405 .3561,4.42167 2.1825,7.03546-3.61976,14.5855s2.12289,15.34108-21.99828,15.41391c-2.83901.00881-.49705,1.87805 3.95516,7.58222 10.97458-.8182 22.78503-6.74084 22.78503-6.74084l1.78785-8.0221 7.12818-6.16143v-7.46591l78.35715,25.38239 6.8981-5.59363-.39894-7.78042z" fill="url(#linearGradient2873)" fill-rule="evenodd"></path><path d="m334.83068,139.46184c0,0-37.15994-31.43253-38.24867-31.7551-1.30517-.38669-4.44839-.55268-5.93164.9886-1.27349,1.32331-4.6205,5.48942-4.6205,5.48942l-1.22798.15623-.08316-5.64565c0,0-.98861-13.84049-2.96582-16.31201s-10.31276-7.27932-10.31276-7.27932l-2.28421,4.50081c0,0 1.59872.8013 2.7109,4.26142s1.48291,1.97721.98861,9.39177-1.97722,20.76074-4.44873,23.72656-9.39177,13.34619-8.89746,15.3234 4.94303,7.41455 4.94303,7.41455l14.13196,34.39839 21.2185,17.24855c0,0 .18731,23.55479-.307,26.52061s-3.57981,5.60911-7.53424,6.10341-35.66522-2.7109-35.66522-2.7109l11.86327,15.3234 24.46802,5.43734 .49431,22.73795-24.22087,8.40316c0,0 11.55459,11.15308 15.01471,10.65878s26.28942.29307 28.48399-2.25562c2.25266-2.61615-5.93164-3.95443-4.44873-5.93164s11.36897-.49431 14.8291-2.47152 9.88606-7.90885 9.39176-10.38037-19.27783-5.93164-19.27783-5.93164l2.96582-6.42594c0,0 5.06661-1.60649 8.89746-4.20159s.92681-2.039 5.93163-7.6617c.30894-6.36416 2.22437-15.8177 2.22437-15.8177l-5.43734-1e-005c0,0-.18536-20.76073-.24714-30.6468-8.71209.74146-14.8291-3.95443-14.8291-3.95443s1.78737-1.73718 1.48291-3.95443c-.14954-1.08906-4.27592-2.85541-4.20158-8.40316 .10071-7.51614 1.60843-7.4262 2.8982-8.59046 2.039-2.10079 4.69588,0 4.69588,0l-31.12557-37.00514c0,0 11.91536-7.78916 16.85839-7.78916s18.28923,9.88607 18.28923,9.88607 1.56842,3.32126 4.94303,2.96582c7.64458-.80519 8.59047-5.81195 8.59047-5.81195z" fill="url(#linearGradient2875)" fill-rule="evenodd"></path><path d="m312.36628,247.22547c0,0 3.41275-7.02623 8.43149-10.03748s10.03747-5.62098 11.24197-4.61724-1.00375,8.63223-1.00375,11.04123 0,6.82548-2.00749,8.02998-6.22324,8.02998-7.42774,8.02998-5.82173,1.2045-5.82173,1.2045l-3.41275-13.65097z" fill="url(#radialGradient2877)" fill-rule="evenodd" stroke="#000"></path><path d="m256.69389,270.58967a8.83298,12.64722 0 1,1 -.00212-.02474" fill="url(#radialGradient2879)" transform="matrix(.93167,.43795,-.36332,1.12307,173.6224,-152.4073)"></path><path d="m313.77153,267.50118c0,0-2.20824,4.41649-3.41274,5.82173s-4.81799,3.41274-4.81799,3.41274l22.88545,3.212c0,0 2.60974-1.40525 3.21199-3.41275s0-6.22323-1.80675-6.42398-16.66221-2.409-16.05996-2.60974z" fill="url(#radialGradient2881)" fill-rule="evenodd" stroke="#000"></path><path d="m256.75865,272.11841a8.83298,12.64722 0 1,1 -.06688-1.55348" fill="url(#radialGradient2883)" transform="matrix(.26737,.12447,-.10426,.31919,290.6159,157.2129)"></path><g transform="translate(-.74145,.4943)"><path d="m328.617,279.14423c1.496.27801 3.101-1.596 3.584-4.188s-.339-4.918-1.835-5.197" fill="none" stroke="#000" stroke-linecap="round" stroke-width="1.698"></path><path d="m330.366,269.76024c-1.496-.279-3.101,1.596-3.584,4.188s.339,4.918 1.835,5.197" fill="none" stroke="#000" stroke-linecap="round" stroke-width=".7058"></path><path d="m330.21,270.59524c-.615-.11501-1.388-.169-1.921.454l-.191-.544c.764-.89201 1.542-1.74401 2.423-1.58001l-.311,1.67001"></path><path d="m327.144,277.19423c.332.93901.986.996 1.628,1.11501l-.312,1.66899c-.744-.139-1.307-1.257-1.69-2.34699l.374-.43701"></path><path d="m330.366,269.76024-16.671-2.223m14.922,11.60699-23.713-3.048m-2.083.46301c4.795,1.18 10.339-4.59601 12.384-12.9 2.044-8.30501-.186-15.993-4.98-17.17401" fill="none" stroke="#000" stroke-linecap="round" stroke-width="1.698"></path><path d="m310.224,246.48523c-4.794-1.18099-10.339,4.595-12.383,12.899s.186,15.99401 4.979,17.17501" fill="none" stroke="#000" stroke-linecap="round" stroke-width=".7058"></path><path d="m310.022,247.30924c-2.267-.558-4.822.139-6.94,2.346l-.16-.554c2.363-2.462 4.978-4.063 7.506-3.44l-.406,1.648"></path><path d="m297.966,270.43523c.95,3.27701 2.887,4.76501 5.058,5.29901l-.406,1.649c-2.272-.56-4.057-3.103-5.051-6.53201l.399-.416"></path><path d="m316.239,260.13423c0,0 6.709-.69299 8.791-3.238 2.082-2.54499 6.246-8.56 6.246-8.56l2.082-15.5c0,0-2.775-3.238-12.261,4.39601-9.485,7.63499-8.328,9.48499-8.097,10.87299" fill="none" stroke="#000" stroke-linecap="round" stroke-width="1.698"></path></g><path d="m329.771,237.74424-.79,5.448c0,0-2.685,4.57999-2.29.553s.553-5.448.632-6.317 2.448-2.369 2.448.316" fill="none" stroke="#000" stroke-linecap="round" stroke-width="1.131"></path><path d="m322.426,239.48023c-1.105,1.02701-2.29,1.106-1.105,3.001s2.686,4.344 2.922,1.26401-.079-5.29001-1.817-4.26501" fill="none" stroke="#000" stroke-linecap="round" stroke-width="1.131"></path><path d="m320.768,246.98324c0,2.368-.631,3.39599-1.974,3.15799s-1.264-.71099-1.105-2.448 .947-2.053 1.737-1.89499 1.263.316 1.342,1.185" fill="none" stroke="#000" stroke-linecap="round" stroke-width="1.131"></path><path d="m318.478,256.45923c.695.121 1.4-.59399 1.575-1.598 .175-1.00299-.248-1.91399-.943-2.035s-1.4.595-1.575,1.59801c-.174,1.00299.248,1.91399.943,2.03499" fill="none" stroke="#000" stroke-linecap="round" stroke-width="1.131"></path><path d="m276.625,91.5625c3.41779,8.61493 3.3644,17.91186 2.5625,24.4375-.2119,2.64873-1.99021,6.97574-2.0625,8.46875 1.43192-1.94218 5.18537-4.30648 5.375-5.875-4.01132-3.31716.48846-22.71142-5.875-27.03125zm20,23.21875c7.68534,1.78666 14.72185,6.76709 19.25,13.69954 1.88365-.11373 5.61852,5.68727 8.41184,3.96875-7.89675-7.28434-14.93601-15.59375-27.66184-17.66829z" fill="#f1ffff" stroke="#fff"></path></g></svg>
